<svg width="20" height="24" viewBox="0 0 20 24" fill="none" xmlns="http://www.w3.org/2000/svg">
<path d="M16.3125 22.35C15.0875 23.5375 13.75 23.35 12.4625 22.7875C11.1 22.2125 9.84996 22.1875 8.41246 22.7875C6.61246 23.5625 5.66246 23.3375 4.58746 22.35C-1.51254 16.0625 -0.612539 6.4875 6.31246 6.1375C7.99996 6.225 9.17496 7.0625 10.1625 7.1375C11.6375 6.8375 13.05 5.975 14.625 6.0875C16.5125 6.2375 17.9375 6.9875 18.875 8.3375C14.975 10.675 15.9 15.8125 19.475 17.25C18.7625 19.125 17.8375 20.9875 16.3 22.3625L16.3125 22.35ZM10.0375 6.0625C9.84996 3.275 12.1125 0.975 14.7125 0.75C15.075 3.975 11.7875 6.375 10.0375 6.0625Z" fill="white"/>
</svg>
