<svg width="20" height="20" viewBox="0 0 20 20" fill="none" xmlns="http://www.w3.org/2000/svg">
<g id="fluent:call-16-regular">
<path id="Vector" d="M4.64264 6.5725C4.40389 5 5.51264 3.5875 7.20639 3.07C7.50696 2.9781 7.83126 3.00426 8.11321 3.14314C8.39517 3.28203 8.61356 3.52319 8.72389 3.8175L9.26764 5.2675C9.35517 5.50076 9.371 5.75487 9.31309 5.99719C9.25519 6.23952 9.12618 6.45901 8.94264 6.6275L7.32514 8.10875C7.24541 8.18191 7.186 8.27449 7.1527 8.37745C7.1194 8.48042 7.11335 8.59025 7.13514 8.69625L7.15014 8.76125L7.18889 8.92375C7.39005 9.7133 7.69655 10.4722 8.10014 11.18C8.53978 11.9321 9.08537 12.6171 9.72014 13.2137L9.77014 13.2587C9.85089 13.3304 9.94883 13.38 10.0544 13.4025C10.16 13.4251 10.2696 13.4199 10.3726 13.3875L12.4639 12.7287C12.7016 12.6541 12.9561 12.6522 13.1949 12.7233C13.4336 12.7943 13.6457 12.9351 13.8039 13.1275L14.7939 14.3287C15.2064 14.8287 15.1564 15.5637 14.6826 16.005C13.3864 17.2137 11.6039 17.4612 10.3639 16.465C8.84393 15.2389 7.56258 13.7436 6.58389 12.0537C5.59725 10.3652 4.93947 8.50553 4.64264 6.5725ZM8.44639 8.77875L9.78639 7.54875C10.1537 7.21192 10.4119 6.773 10.528 6.28834C10.644 5.80368 10.6126 5.2954 10.4376 4.82875L9.89514 3.37875C9.67307 2.78656 9.23356 2.30132 8.66616 2.02192C8.09876 1.74252 7.44618 1.68997 6.84139 1.875C4.73764 2.51875 3.04889 4.405 3.40639 6.76125C3.65639 8.40625 4.23264 10.4987 5.50389 12.6837C6.55978 14.5059 7.94196 16.1181 9.58139 17.44C11.4414 18.9337 13.9239 18.4237 15.5364 16.9212C15.9978 16.4916 16.2778 15.9022 16.3194 15.2731C16.361 14.6441 16.161 14.0228 15.7601 13.5362L14.7701 12.3337C14.4534 11.9493 14.0291 11.6683 13.5516 11.5267C13.0741 11.385 12.5652 11.3892 12.0901 11.5387L10.3539 12.085C9.9056 11.6228 9.51294 11.1097 9.18389 10.5562C8.86604 9.9967 8.61835 9.40012 8.44639 8.78V8.77875Z" fill="#215034"/>
</g>
</svg>
