<svg width="390" height="246" viewBox="0 0 390 246" fill="none" xmlns="http://www.w3.org/2000/svg">
<g clip-path="url(#clip0_1166_3075)">
<rect y="0.627747" width="390" height="244.884" rx="18.1395" fill="#86D8A7"/>
<rect y="123.07" width="390" height="122.442" fill="#232323"/>
<path d="M49.3627 152.048V136.674H43.7621C43.1726 136.674 42.6284 136.992 42.6284 137.808C42.6284 138.624 43.1726 138.942 43.7621 138.942H47.0953V152.048H43.7621C43.1726 152.048 42.6284 152.365 42.6284 153.181C42.6284 153.998 43.1726 154.315 43.7621 154.315H52.6959C53.2854 154.315 53.8296 153.998 53.8296 153.181V147.467C53.8296 146.81 53.5348 146.334 52.6959 146.334C51.8569 146.334 51.5621 146.81 51.5621 147.467V152.048H49.3627Z" fill="#FAFAFA"/>
<path d="M61.2152 146.628H67.6094C68.3577 146.628 68.8792 146.515 69.4461 145.994C70.0809 145.404 70.149 144.792 70.149 143.975V139.327C70.149 138.511 70.0809 137.899 69.4461 137.309C68.8792 136.788 68.3577 136.674 67.6094 136.674H60.0815C59.492 136.674 58.9478 136.992 58.9478 137.808C58.9478 138.624 59.492 138.942 60.0815 138.942H67.8815V144.361H61.51C59.8094 144.361 58.9478 145.223 58.9478 146.923V154.315H69.0152C69.6048 154.315 70.149 153.998 70.149 153.181C70.149 152.365 69.6048 152.048 69.0152 152.048H61.2152V146.628Z" fill="#FAFAFA"/>
<path d="M84.2009 138.942V142.706C84.2009 143.975 83.7021 144.361 83.0672 144.361H78.623C78.0335 144.361 77.4893 144.678 77.4893 145.495C77.4893 146.311 78.0335 146.628 78.623 146.628H83.0672C83.7021 146.628 84.2009 147.014 84.2009 148.284V152.048H76.4009C75.8114 152.048 75.2672 152.365 75.2672 153.181C75.2672 153.998 75.8114 154.315 76.4009 154.315H84.2009C85.4933 154.315 86.4683 153.34 86.4683 152.048V147.694C86.4683 146.787 86.2869 146.13 85.584 145.495C86.2869 144.86 86.4683 144.202 86.4683 143.295V138.942C86.4683 137.649 85.4933 136.674 84.2009 136.674H76.4009C75.8114 136.674 75.2672 136.992 75.2672 137.808C75.2672 138.624 75.8114 138.942 76.4009 138.942H84.2009Z" fill="#FAFAFA"/>
<path d="M94.9877 146.288V137.808C94.9877 137.241 94.7156 136.674 93.854 136.674C92.9924 136.674 92.7203 137.241 92.7203 137.808V148.556H99.3866V153.181C99.3866 153.907 99.704 154.315 100.52 154.315C101.337 154.315 101.654 153.907 101.654 153.181V148.556C102.244 148.556 102.788 148.238 102.788 147.422C102.788 146.606 102.244 146.288 101.654 146.288V139.735C101.654 139.169 101.382 138.602 100.52 138.602C99.6587 138.602 99.3866 139.169 99.3866 139.735V146.288H94.9877Z" fill="#FAFAFA"/>
<path d="M128.738 138.942H134.293C134.882 138.942 135.426 138.624 135.426 137.808C135.426 136.992 134.882 136.674 134.293 136.674H126.47V146.628H133.159V152.048H127.921C127.558 152.048 127.037 151.73 126.72 151.594L126.039 151.299C125.79 151.186 125.586 151.118 125.314 151.118C124.724 151.118 124.225 151.662 124.225 152.252C124.225 153.045 124.906 153.249 125.518 153.521L126.379 153.907C126.946 154.156 127.286 154.315 127.876 154.315H132.91C133.726 154.315 134.315 154.224 134.882 153.544C135.358 152.977 135.426 152.478 135.426 151.775V146.923C135.426 146.13 135.358 145.585 134.724 144.996C134.179 144.474 133.635 144.361 132.91 144.361H128.738V138.942Z" fill="#FAFAFA"/>
<path d="M142.812 138.942C143.47 138.942 143.946 138.488 143.946 137.808C143.946 137.219 143.47 136.674 142.88 136.674H141.52C140.726 136.674 140.545 137.287 140.545 137.808V152.887C140.545 153.93 140.953 154.315 142.019 154.315H150.272C151.292 154.315 151.746 153.952 151.746 152.887V147.807C151.746 146.764 151.519 146.288 150.385 146.288H142.812V138.942ZM149.478 148.556V152.048H142.812V148.556H149.478Z" fill="#FAFAFA"/>
<path d="M165.798 138.942V142.071C165.798 143.069 165.843 143.046 165.095 143.703L161.966 146.402C161.399 146.9 161.376 146.969 161.376 147.717V153.181C161.376 153.907 161.694 154.315 162.51 154.315C163.326 154.315 163.644 153.907 163.644 153.181V148.782C163.644 147.989 163.689 147.944 164.279 147.422L167.453 144.678C168.088 144.134 168.065 144.044 168.065 143.25V136.674H157.998C157.272 136.674 156.864 137.309 156.864 137.808V138.942C156.864 139.441 157.272 140.075 157.998 140.075C158.723 140.075 159.132 139.441 159.132 138.942H165.798Z" fill="#FAFAFA"/>
<path d="M177.718 144.361V138.942H179.85V144.361H177.718ZM176.585 136.674C175.814 136.674 175.451 137.219 175.451 137.808V144.361C174.748 144.361 174.204 144.61 173.796 144.996C173.388 145.381 173.183 145.948 173.183 146.651V152.048C173.183 153.431 174.045 154.315 175.451 154.315H182.117C183.523 154.315 184.385 153.431 184.385 152.048V146.651C184.385 145.948 184.181 145.381 183.772 144.996C183.364 144.61 182.82 144.361 182.117 144.361V137.808C182.117 137.219 181.754 136.674 180.983 136.674H176.585ZM175.451 152.048V146.628H182.117V152.048H175.451Z" fill="#FAFAFA"/>
<path d="M214.756 152.048C214.098 152.048 213.622 152.501 213.622 153.181C213.622 153.794 214.076 154.315 214.756 154.315H215.89C216.57 154.315 217.023 153.794 217.023 153.181V137.808C217.023 137.219 216.525 136.674 215.89 136.674H206.956C206.321 136.674 205.822 137.219 205.822 137.808V143.613C205.822 144.202 206.321 144.746 206.956 144.746H214.756V152.048ZM208.09 142.479V138.942H214.756V142.479H208.09Z" fill="#FAFAFA"/>
<path d="M224.409 136.674C223.162 136.674 222.142 137.695 222.142 138.942V152.048C222.142 153.317 223.117 154.315 224.409 154.315H231.075C232.368 154.315 233.343 153.317 233.343 152.048V138.942C233.343 137.695 232.322 136.674 231.075 136.674H224.409ZM224.409 152.048V138.942H231.075V152.048H224.409Z" fill="#FAFAFA"/>
<path d="M240.728 136.674C239.481 136.674 238.461 137.695 238.461 138.942V152.048C238.461 153.317 239.436 154.315 240.728 154.315H247.395C248.687 154.315 249.662 153.317 249.662 152.048V138.942C249.662 137.695 248.642 136.674 247.395 136.674H240.728ZM240.728 152.048V138.942H247.395V152.048H240.728Z" fill="#FAFAFA"/>
<path d="M257.048 136.674C255.801 136.674 254.78 137.695 254.78 138.942V152.048C254.78 153.317 255.755 154.315 257.048 154.315H263.714C265.007 154.315 265.982 153.317 265.982 152.048V138.942C265.982 137.695 264.961 136.674 263.714 136.674H257.048ZM257.048 152.048V138.942H263.714V152.048H257.048Z" fill="#FAFAFA"/>
<path d="M289.687 136.674C288.439 136.674 287.419 137.695 287.419 138.942V152.048C287.419 153.317 288.394 154.315 289.687 154.315H296.353C297.645 154.315 298.62 153.317 298.62 152.048V138.942C298.62 137.695 297.6 136.674 296.353 136.674H289.687ZM289.687 152.048V138.942H296.353V152.048H289.687Z" fill="#FAFAFA"/>
<path d="M306.006 136.674C304.759 136.674 303.739 137.695 303.739 138.942V152.048C303.739 153.317 304.714 154.315 306.006 154.315H312.672C313.965 154.315 314.94 153.317 314.94 152.048V138.942C314.94 137.695 313.919 136.674 312.672 136.674H306.006ZM306.006 152.048V138.942H312.672V152.048H306.006Z" fill="#FAFAFA"/>
<path d="M322.325 136.674C321.078 136.674 320.058 137.695 320.058 138.942V152.048C320.058 153.317 321.033 154.315 322.325 154.315H328.992C330.284 154.315 331.259 153.317 331.259 152.048V138.942C331.259 137.695 330.239 136.674 328.992 136.674H322.325ZM322.325 152.048V138.942H328.992V152.048H322.325Z" fill="#FAFAFA"/>
<path d="M338.645 136.674C337.398 136.674 336.377 137.695 336.377 138.942V152.048C336.377 153.317 337.352 154.315 338.645 154.315H345.311C346.603 154.315 347.578 153.317 347.578 152.048V138.942C347.578 137.695 346.558 136.674 345.311 136.674H338.645ZM338.645 152.048V138.942H345.311V152.048H338.645Z" fill="#FAFAFA"/>
<path d="M39.5695 186.989V179.371H40.734L44.0644 184.932H43.4549L46.7309 179.371H47.8955L47.9064 186.989H46.5677L46.5568 181.471H46.8398L44.0536 186.118H43.4223L40.5925 181.471H40.919V186.989H39.5695ZM49.8337 186.989V181.177H51.1941V186.989H49.8337ZM50.5193 180.219C50.2654 180.219 50.055 180.14 49.8881 179.98C49.7284 179.82 49.6486 179.628 49.6486 179.403C49.6486 179.171 49.7284 178.979 49.8881 178.826C50.055 178.667 50.2654 178.587 50.5193 178.587C50.7733 178.587 50.9801 178.663 51.1397 178.815C51.3066 178.961 51.39 179.146 51.39 179.371C51.39 179.61 51.3102 179.813 51.1506 179.98C50.991 180.14 50.7805 180.219 50.5193 180.219ZM55.6462 187.065C55.0368 187.065 54.4926 186.938 54.0137 186.684C53.5421 186.423 53.172 186.068 52.9035 185.618C52.6351 185.168 52.5008 184.656 52.5008 184.083C52.5008 183.503 52.6351 182.991 52.9035 182.549C53.172 182.099 53.5421 181.747 54.0137 181.493C54.4926 181.239 55.0368 181.112 55.6462 181.112C56.2122 181.112 56.7092 181.228 57.1373 181.46C57.5727 181.685 57.9028 182.019 58.1277 182.462L57.0829 183.071C56.9088 182.795 56.6947 182.592 56.4408 182.462C56.1941 182.331 55.9256 182.266 55.6354 182.266C55.3016 182.266 55.0005 182.338 54.732 182.483C54.4635 182.628 54.2531 182.839 54.1008 183.115C53.9484 183.383 53.8722 183.706 53.8722 184.083C53.8722 184.461 53.9484 184.787 54.1008 185.063C54.2531 185.331 54.4635 185.538 54.732 185.683C55.0005 185.828 55.3016 185.901 55.6354 185.901C55.9256 185.901 56.1941 185.835 56.4408 185.705C56.6947 185.574 56.9088 185.371 57.0829 185.095L58.1277 185.705C57.9028 186.14 57.5727 186.478 57.1373 186.717C56.7092 186.949 56.2122 187.065 55.6462 187.065ZM60.3608 185.694L60.3934 183.985L63.43 181.177H65.0625L62.4831 183.768L61.7648 184.366L60.3608 185.694ZM59.2506 186.989V178.913H60.6111V186.989H59.2506ZM63.6368 186.989L61.5144 184.366L62.3743 183.278L65.2911 186.989H63.6368ZM72.8674 187.098C72.2724 187.098 71.7246 187.004 71.2239 186.815C70.7305 186.619 70.2988 186.347 69.9287 185.999C69.5587 185.643 69.2721 185.226 69.0689 184.747C68.8658 184.268 68.7642 183.746 68.7642 183.18C68.7642 182.614 68.8658 182.091 69.0689 181.613C69.2721 181.134 69.5587 180.72 69.9287 180.372C70.306 180.016 70.745 179.744 71.2457 179.556C71.7463 179.36 72.2941 179.262 72.8891 179.262C73.5349 179.262 74.1154 179.367 74.6305 179.577C75.1529 179.788 75.5919 180.096 75.9474 180.502L75.055 181.373C74.7575 181.076 74.4346 180.858 74.0863 180.72C73.7453 180.575 73.368 180.502 72.9544 180.502C72.5554 180.502 72.1853 180.568 71.8443 180.698C71.5033 180.829 71.2094 181.014 70.9627 181.253C70.716 181.493 70.5237 181.776 70.3859 182.102C70.2553 182.429 70.19 182.788 70.19 183.18C70.19 183.564 70.2553 183.92 70.3859 184.246C70.5237 184.573 70.716 184.86 70.9627 185.106C71.2094 185.346 71.4996 185.531 71.8334 185.661C72.1672 185.792 72.5372 185.857 72.9435 185.857C73.3208 185.857 73.6836 185.799 74.0319 185.683C74.3874 185.56 74.7248 185.357 75.0441 185.074L75.8495 186.129C75.4504 186.449 74.986 186.692 74.4564 186.859C73.934 187.018 73.4043 187.098 72.8674 187.098ZM74.5108 185.944V183.093H75.8495V186.129L74.5108 185.944ZM81.1658 186.989V185.814L81.0896 185.563V183.506C81.0896 183.107 80.9699 182.799 80.7304 182.581C80.491 182.356 80.1282 182.244 79.642 182.244C79.3155 182.244 78.9926 182.295 78.6734 182.396C78.3614 182.498 78.0966 182.639 77.8789 182.821L77.3456 181.83C77.6576 181.591 78.0276 181.413 78.4557 181.297C78.8911 181.174 79.3409 181.112 79.8053 181.112C80.647 181.112 81.2964 181.315 81.7535 181.721C82.2179 182.121 82.45 182.741 82.45 183.583V186.989H81.1658ZM79.3373 187.065C78.902 187.065 78.521 186.993 78.1945 186.848C77.868 186.695 77.614 186.489 77.4326 186.227C77.2585 185.959 77.1714 185.658 77.1714 185.324C77.1714 184.997 77.2476 184.704 77.4 184.442C77.5596 184.181 77.8172 183.974 78.1727 183.822C78.5283 183.67 78.9999 183.593 79.5876 183.593H81.2746V184.497H79.6856C79.2212 184.497 78.9092 184.573 78.7496 184.725C78.59 184.87 78.5101 185.052 78.5101 185.27C78.5101 185.516 78.6081 185.712 78.804 185.857C78.9999 186.002 79.272 186.075 79.6203 186.075C79.954 186.075 80.2515 185.999 80.5127 185.846C80.7812 185.694 80.9735 185.469 81.0896 185.172L81.3181 185.988C81.1875 186.329 80.9517 186.594 80.6107 186.782C80.2769 186.971 79.8525 187.065 79.3373 187.065ZM84.196 186.989V181.177H85.4912V182.777L85.3388 182.309C85.513 181.917 85.7851 181.62 86.1551 181.417C86.5324 181.214 87.0004 181.112 87.5591 181.112V182.407C87.5011 182.393 87.4466 182.385 87.3958 182.385C87.3451 182.378 87.2943 182.374 87.2435 182.374C86.7283 182.374 86.3184 182.527 86.0136 182.832C85.7089 183.129 85.5565 183.575 85.5565 184.17V186.989H84.196ZM91.1198 187.065C90.5611 187.065 90.0568 186.942 89.6069 186.695C89.1643 186.441 88.8161 186.093 88.5621 185.65C88.3082 185.208 88.1812 184.685 88.1812 184.083C88.1812 183.481 88.3082 182.959 88.5621 182.516C88.8161 182.073 89.1643 181.729 89.6069 181.482C90.0568 181.235 90.5611 181.112 91.1198 181.112C91.6059 181.112 92.0413 181.221 92.4258 181.438C92.8104 181.649 93.1151 181.972 93.3401 182.407C93.565 182.842 93.6775 183.401 93.6775 184.083C93.6775 184.758 93.5686 185.317 93.3509 185.759C93.1333 186.195 92.8322 186.521 92.4476 186.739C92.063 186.957 91.6204 187.065 91.1198 187.065ZM91.283 185.901C91.6095 185.901 91.8998 185.828 92.1537 185.683C92.4149 185.538 92.6217 185.328 92.7741 185.052C92.9337 184.776 93.0135 184.453 93.0135 184.083C93.0135 183.706 92.9337 183.383 92.7741 183.115C92.6217 182.839 92.4149 182.628 92.1537 182.483C91.8998 182.338 91.6095 182.266 91.283 182.266C90.9565 182.266 90.6627 182.338 90.4015 182.483C90.1475 182.628 89.9407 182.839 89.7811 183.115C89.6287 183.383 89.5525 183.706 89.5525 184.083C89.5525 184.453 89.6287 184.776 89.7811 185.052C89.9407 185.328 90.1475 185.538 90.4015 185.683C90.6627 185.828 90.9565 185.901 91.283 185.901ZM93.0462 186.989V185.618L93.1006 184.072L92.9918 182.527V178.913H94.3414V186.989H93.0462ZM96.6109 189.177C96.3279 189.177 96.0449 189.13 95.7619 189.035C95.479 188.941 95.2431 188.81 95.0545 188.643L95.5987 187.642C95.7365 187.766 95.8925 187.863 96.0667 187.936C96.2408 188.009 96.4186 188.045 96.6 188.045C96.8467 188.045 97.0462 187.983 97.1986 187.86C97.351 187.737 97.4925 187.53 97.6231 187.239L97.9605 186.478L98.0693 186.314L100.268 181.177H101.574L98.8529 187.457C98.6715 187.893 98.4684 188.237 98.2434 188.491C98.0258 188.745 97.7791 188.923 97.5033 189.024C97.2349 189.126 96.9374 189.177 96.6109 189.177ZM97.8081 187.196L95.1851 181.177H96.6L98.7332 186.195L97.8081 187.196Z" fill="#FAFAFA"/>
<path d="M121.419 186.989V179.915L122.039 180.557H119.808V179.371H122.834V186.989H121.419ZM124.247 186.989V186.042L127.273 183.169C127.527 182.93 127.716 182.719 127.839 182.538C127.962 182.356 128.042 182.189 128.078 182.037C128.122 181.877 128.144 181.729 128.144 181.591C128.144 181.243 128.024 180.974 127.784 180.785C127.545 180.59 127.193 180.492 126.729 180.492C126.359 180.492 126.021 180.557 125.717 180.687C125.419 180.818 125.162 181.018 124.944 181.286L123.953 180.524C124.251 180.125 124.65 179.817 125.151 179.599C125.659 179.374 126.224 179.262 126.848 179.262C127.4 179.262 127.879 179.352 128.285 179.534C128.699 179.708 129.014 179.958 129.232 180.285C129.457 180.611 129.569 180.999 129.569 181.449C129.569 181.696 129.537 181.943 129.471 182.189C129.406 182.429 129.283 182.683 129.101 182.951C128.92 183.22 128.655 183.521 128.307 183.855L125.706 186.325L125.412 185.792H129.863V186.989H124.247ZM129.981 188.078L133.572 177.825H134.791L131.2 188.078H129.981ZM134.727 186.989V186.042L137.753 183.169C138.007 182.93 138.195 182.719 138.319 182.538C138.442 182.356 138.522 182.189 138.558 182.037C138.602 181.877 138.623 181.729 138.623 181.591C138.623 181.243 138.504 180.974 138.264 180.785C138.025 180.59 137.673 180.492 137.209 180.492C136.839 180.492 136.501 180.557 136.196 180.687C135.899 180.818 135.641 181.018 135.424 181.286L134.433 180.524C134.731 180.125 135.13 179.817 135.63 179.599C136.138 179.374 136.704 179.262 137.328 179.262C137.88 179.262 138.359 179.352 138.765 179.534C139.179 179.708 139.494 179.958 139.712 180.285C139.937 180.611 140.049 180.999 140.049 181.449C140.049 181.696 140.017 181.943 139.951 182.189C139.886 182.429 139.763 182.683 139.581 182.951C139.4 183.22 139.135 183.521 138.787 183.855L136.186 186.325L135.892 185.792H140.343V186.989H134.727ZM140.891 185.259V184.279L144.646 179.371H146.159L142.459 184.279L141.751 184.061H147.792V185.259H140.891ZM145.071 186.989V185.259L145.114 184.061V182.527H146.442V186.989H145.071Z" fill="#FAFAFA"/>
<g filter="url(#filter0_b_1166_3075)">
<path d="M45.3477 82.7096C45.3477 78.7024 48.5962 75.4538 52.6035 75.4538H88.8825C92.8898 75.4538 96.1384 78.7024 96.1384 82.7096V104.477C96.1384 108.484 92.8898 111.733 88.8825 111.733H52.6035C48.5962 111.733 45.3477 108.484 45.3477 104.477V82.7096Z" fill="#232323" fill-opacity="0.4"/>
<path d="M45.8011 82.7096C45.8011 78.9528 48.8466 75.9073 52.6035 75.9073H88.8825C92.6394 75.9073 95.6849 78.9528 95.6849 82.7096V104.477C95.6849 108.234 92.6394 111.279 88.8825 111.279H52.6035C48.8466 111.279 45.8011 108.234 45.8011 104.477V82.7096Z" stroke="#232323" stroke-opacity="0.4" stroke-width="0.906977"/>
</g>
<path d="M57.5921 76.3611H58.4991V110.826H57.5921V99.9425H46.2549V99.0355H57.5921V88.1518H46.2549V87.2448H57.5921V76.3611Z" fill="#232323" fill-opacity="0.4"/>
<path d="M83.4409 99.0355H95.2316V99.9425H83.4409V110.826H82.534V92.6867C82.534 89.6812 84.9704 87.2448 87.9758 87.2448H95.2316V88.1518H87.9758C85.4713 88.1518 83.4409 90.1821 83.4409 92.6867V99.0355Z" fill="#232323" fill-opacity="0.4"/>
<path d="M83.4409 76.3611H82.534V83.6169H83.4409V76.3611Z" fill="#232323" fill-opacity="0.4"/>
<path fill-rule="evenodd" clip-rule="evenodd" d="M77.0921 93.5937C77.0921 97.1 74.2496 99.9425 70.7433 99.9425C67.2369 99.9425 64.3944 97.1 64.3944 93.5937C64.3944 90.0873 67.2369 87.2448 70.7433 87.2448C74.2496 87.2448 77.0921 90.0873 77.0921 93.5937ZM76.1851 93.5937C76.1851 96.5991 73.7487 99.0355 70.7433 99.0355C67.7378 99.0355 65.3014 96.5991 65.3014 93.5937C65.3014 90.5882 67.7378 88.1518 70.7433 88.1518C73.7487 88.1518 76.1851 90.5882 76.1851 93.5937Z" fill="#232323" fill-opacity="0.4"/>
<g clip-path="url(#clip1_1166_3075)">
<path d="M328.598 48.0626C328.961 48.5161 329.233 49.0603 329.414 49.6045C329.596 50.1486 329.686 50.7835 329.686 51.4184C329.686 52.0533 329.596 52.6882 329.414 53.2324C329.233 53.7765 328.961 54.3207 328.598 54.7742C328.144 55.4091 328.235 56.3161 328.87 56.7696C329.505 57.2231 330.412 57.1324 330.865 56.4975C331.41 55.7719 331.772 55.0463 332.135 54.1393C332.498 53.2324 332.589 52.3254 332.589 51.4184C332.589 50.5114 332.407 49.6045 332.135 48.6975C331.863 47.8812 331.41 47.0649 330.865 46.3393C330.412 45.7045 329.505 45.6138 328.87 46.0672C328.235 46.5207 328.144 47.4277 328.598 48.0626Z" fill="#232323"/>
<path d="M333.586 45.4324C334.675 47.1556 335.31 49.2417 335.31 51.4184C335.31 53.5951 334.675 55.6812 333.586 57.4044C333.133 58.0393 333.405 58.9463 334.04 59.3998C334.765 59.8533 335.582 59.5812 336.035 58.9463C337.396 56.7696 338.212 54.23 338.212 51.4184C338.212 48.6975 337.396 46.0672 336.035 43.8905C335.582 43.2556 334.675 42.9835 334.04 43.437C333.405 43.8905 333.133 44.7068 333.586 45.4324Z" fill="#232323"/>
<path d="M338.847 42.7114C340.389 45.251 341.205 48.244 341.205 51.4184C341.205 54.5928 340.298 57.5858 338.847 60.1254C338.484 60.851 338.665 61.6672 339.391 62.1207C340.116 62.4835 340.933 62.3021 341.386 61.5765C343.2 58.5835 344.198 55.137 344.198 51.4184C344.198 47.6998 343.2 44.2533 341.386 41.2603C341.023 40.5347 340.116 40.3533 339.391 40.7161C338.665 41.1696 338.484 41.9858 338.847 42.7114Z" fill="#232323"/>
<path d="M344.107 39.9905C346.012 43.3463 347.191 47.2463 347.191 51.4184C347.191 55.5905 346.102 59.4905 344.107 62.8463C343.744 63.5719 343.926 64.3882 344.651 64.8417C345.377 65.2044 346.193 65.0231 346.647 64.2975C348.823 60.4882 350.093 56.1347 350.093 51.4184C350.093 46.7021 348.823 42.3486 346.647 38.5393C346.284 37.8138 345.377 37.6324 344.651 37.9951C343.926 38.3579 343.744 39.2649 344.107 39.9905Z" fill="#232323"/>
</g>
<g filter="url(#filter1_b_1166_3075)">
<ellipse cx="323.445" cy="199.825" rx="16.9212" ry="16.9212" fill="#EB001B"/>
</g>
<g filter="url(#filter2_b_1166_3075)">
<path d="M361.348 199.825C361.348 209.17 353.772 216.746 344.427 216.746C335.082 216.746 327.506 209.17 327.506 199.825C327.506 190.479 335.082 182.904 344.427 182.904C353.772 182.904 361.348 190.479 361.348 199.825Z" fill="#F79E1B"/>
</g>
<g filter="url(#filter3_b_1166_3075)">
<path d="M333.936 186.547C330.019 189.646 327.506 194.442 327.506 199.824C327.506 205.207 330.019 210.002 333.936 213.101C337.853 210.002 340.366 205.207 340.366 199.824C340.366 194.442 337.853 189.646 333.936 186.547Z" fill="#FF5F00"/>
</g>
</g>
<rect x="1.13372" y="1.76165" width="387.733" height="242.616" rx="17.0058" stroke="url(#paint0_linear_1166_3075)" stroke-width="2.26744"/>
<defs>
<filter id="filter0_b_1166_3075" x="34.0104" y="64.1166" width="73.4649" height="58.9535" filterUnits="userSpaceOnUse" color-interpolation-filters="sRGB">
<feFlood flood-opacity="0" result="BackgroundImageFix"/>
<feGaussianBlur in="BackgroundImageFix" stdDeviation="5.6686"/>
<feComposite in2="SourceAlpha" operator="in" result="effect1_backgroundBlur_1166_3075"/>
<feBlend mode="normal" in="SourceGraphic" in2="effect1_backgroundBlur_1166_3075" result="shape"/>
</filter>
<filter id="filter1_b_1166_3075" x="283.85" y="160.229" width="79.1911" height="79.1912" filterUnits="userSpaceOnUse" color-interpolation-filters="sRGB">
<feFlood flood-opacity="0" result="BackgroundImageFix"/>
<feGaussianBlur in="BackgroundImageFix" stdDeviation="11.3372"/>
<feComposite in2="SourceAlpha" operator="in" result="effect1_backgroundBlur_1166_3075"/>
<feBlend mode="normal" in="SourceGraphic" in2="effect1_backgroundBlur_1166_3075" result="shape"/>
</filter>
<filter id="filter2_b_1166_3075" x="304.831" y="160.229" width="79.1911" height="79.1912" filterUnits="userSpaceOnUse" color-interpolation-filters="sRGB">
<feFlood flood-opacity="0" result="BackgroundImageFix"/>
<feGaussianBlur in="BackgroundImageFix" stdDeviation="11.3372"/>
<feComposite in2="SourceAlpha" operator="in" result="effect1_backgroundBlur_1166_3075"/>
<feBlend mode="normal" in="SourceGraphic" in2="effect1_backgroundBlur_1166_3075" result="shape"/>
</filter>
<filter id="filter3_b_1166_3075" x="304.831" y="163.872" width="58.2092" height="71.9034" filterUnits="userSpaceOnUse" color-interpolation-filters="sRGB">
<feFlood flood-opacity="0" result="BackgroundImageFix"/>
<feGaussianBlur in="BackgroundImageFix" stdDeviation="11.3372"/>
<feComposite in2="SourceAlpha" operator="in" result="effect1_backgroundBlur_1166_3075"/>
<feBlend mode="normal" in="SourceGraphic" in2="effect1_backgroundBlur_1166_3075" result="shape"/>
</filter>
<linearGradient id="paint0_linear_1166_3075" x1="-2.90573e-06" y1="123.07" x2="390" y2="123.07" gradientUnits="userSpaceOnUse">
<stop stop-color="white" stop-opacity="0.8"/>
<stop offset="1" stop-color="white" stop-opacity="0.1"/>
</linearGradient>
<clipPath id="clip0_1166_3075">
<rect y="0.62793" width="390" height="244.884" rx="18.1395" fill="white"/>
</clipPath>
<clipPath id="clip1_1166_3075">
<rect width="29.0233" height="29.0233" fill="white" transform="translate(324.698 36.9073)"/>
</clipPath>
</defs>
</svg>
