<svg width="52" height="37" viewBox="0 0 52 37" fill="none" xmlns="http://www.w3.org/2000/svg">
<g id="Chip">
<g id="Fill" filter="url(#filter0_b_1166_3113)">
<path d="M0.347656 7.70964C0.347656 3.70237 3.59619 0.453827 7.60347 0.453827H43.8825C47.8898 0.453827 51.1384 3.70237 51.1384 7.70964V29.4771C51.1384 33.4844 47.8898 36.7329 43.8825 36.7329H7.60347C3.59619 36.7329 0.347656 33.4844 0.347656 29.4771V7.70964Z" fill="#232323" fill-opacity="0.4"/>
<path d="M0.801145 7.70964C0.801145 3.95282 3.84665 0.907315 7.60347 0.907315H43.8825C47.6394 0.907315 50.6849 3.95282 50.6849 7.70964V29.4771C50.6849 33.2339 47.6394 36.2794 43.8825 36.2794H7.60347C3.84665 36.2794 0.801145 33.2339 0.801145 29.4771V7.70964Z" stroke="#232323" stroke-opacity="0.4" stroke-width="0.906977"/>
</g>
<g id="Chip_2">
<path d="M12.5921 1.36111H13.4991V35.8262H12.5921V24.9425H1.25488V24.0355H12.5921V13.1518H1.25488V12.2448H12.5921V1.36111Z" fill="#232323" fill-opacity="0.4"/>
<path d="M38.4409 24.0355H50.2316V24.9425H38.4409V35.8262H37.534V17.6867C37.534 14.6812 39.9704 12.2448 42.9758 12.2448H50.2316V13.1518H42.9758C40.4713 13.1518 38.4409 15.1821 38.4409 17.6867V24.0355Z" fill="#232323" fill-opacity="0.4"/>
<path d="M38.4409 1.36111H37.534V8.61693H38.4409V1.36111Z" fill="#232323" fill-opacity="0.4"/>
<path fill-rule="evenodd" clip-rule="evenodd" d="M32.0921 18.5937C32.0921 22.1 29.2496 24.9425 25.7433 24.9425C22.2369 24.9425 19.3944 22.1 19.3944 18.5937C19.3944 15.0873 22.2369 12.2448 25.7433 12.2448C29.2496 12.2448 32.0921 15.0873 32.0921 18.5937ZM31.1851 18.5937C31.1851 21.5991 28.7487 24.0355 25.7433 24.0355C22.7378 24.0355 20.3014 21.5991 20.3014 18.5937C20.3014 15.5882 22.7378 13.1518 25.7433 13.1518C28.7487 13.1518 31.1851 15.5882 31.1851 18.5937Z" fill="#232323" fill-opacity="0.4"/>
</g>
</g>
<defs>
<filter id="filter0_b_1166_3113" x="-10.9896" y="-10.8834" width="73.4649" height="58.9535" filterUnits="userSpaceOnUse" color-interpolation-filters="sRGB">
<feFlood flood-opacity="0" result="BackgroundImageFix"/>
<feGaussianBlur in="BackgroundImageFix" stdDeviation="5.6686"/>
<feComposite in2="SourceAlpha" operator="in" result="effect1_backgroundBlur_1166_3113"/>
<feBlend mode="normal" in="SourceGraphic" in2="effect1_backgroundBlur_1166_3113" result="shape"/>
</filter>
</defs>
</svg>
