<svg width="24" height="24" viewBox="0 0 24 24" fill="none" xmlns="http://www.w3.org/2000/svg">
<g id="iconoir:edit-pencil">
<path id="Vector" d="M14.3631 5.652L15.8431 4.172C16.0288 3.9862 16.2493 3.8388 16.492 3.73824C16.7347 3.63768 16.9948 3.58593 17.2576 3.58593C17.5203 3.58593 17.7804 3.63768 18.0231 3.73824C18.2658 3.8388 18.4863 3.9862 18.6721 4.172L20.0861 5.586C20.461 5.96105 20.6716 6.46967 20.6716 7C20.6716 7.53033 20.461 8.03894 20.0861 8.414L18.6061 9.894M14.3631 5.652L4.74705 15.267C4.41504 15.599 4.21042 16.0373 4.16905 16.505L3.92705 19.245C3.91406 19.3907 3.93316 19.5374 3.98303 19.6749C4.0329 19.8123 4.11231 19.9372 4.21566 20.0407C4.31902 20.1441 4.44381 20.2236 4.58124 20.2736C4.71866 20.3236 4.86538 20.3429 5.01105 20.33L7.75105 20.088C8.21948 20.0471 8.65852 19.8424 8.99105 19.51L18.6061 9.894M14.3631 5.652L18.6061 9.894" stroke="#215034" stroke-width="1.5" stroke-linecap="round" stroke-linejoin="round"/>
</g>
</svg>
