<svg width="26" height="28" viewBox="0 0 26 28" fill="none" xmlns="http://www.w3.org/2000/svg">
<g clip-path="url(#clip0_980_2824)">
<path d="M25.9877 14.2615C25.9877 13.1144 25.8992 12.2773 25.7078 11.4092H13.259V16.5868H20.5661C20.4189 17.8735 19.6233 19.8113 17.8554 21.1134L17.8307 21.2868L21.7667 24.4953L22.0394 24.524C24.5438 22.0901 25.9877 18.5091 25.9877 14.2615Z" fill="#4285F4"/>
<path d="M13.259 27.9035C16.8389 27.9035 19.8442 26.6632 22.0394 24.524L17.8554 21.1135C16.7358 21.9351 15.2331 22.5086 13.259 22.5086C9.75279 22.5086 6.77691 20.0749 5.71609 16.7109L5.5606 16.7248L1.46783 20.0578L1.41431 20.2144C3.59465 24.7719 8.07325 27.9035 13.259 27.9035Z" fill="#34A853"/>
<path d="M5.71604 16.7113C5.43613 15.8432 5.27414 14.913 5.27414 13.9519C5.27414 12.9907 5.43613 12.0606 5.70131 11.1925L5.6939 11.0076L1.54984 7.62113L1.41426 7.68899C0.515633 9.58028 0 11.7041 0 13.9519C0 16.1997 0.515633 18.3234 1.41426 20.2147L5.71604 16.7113Z" fill="#FBBC05"/>
<path d="M13.259 5.3947C15.7487 5.3947 17.4282 6.52635 18.3858 7.47205L22.1278 3.6275C19.8296 1.37969 16.8389 0 13.259 0C8.07325 0 3.59465 3.1314 1.41431 7.68899L5.70136 11.1925C6.77691 7.82857 9.75279 5.3947 13.259 5.3947Z" fill="#EB4335"/>
</g>
<defs>
<clipPath id="clip0_980_2824">
<rect width="26" height="28" fill="white"/>
</clipPath>
</defs>
</svg>
