<svg width="18" height="18" viewBox="0 0 18 18" fill="none" xmlns="http://www.w3.org/2000/svg">
<g clip-path="url(#clip0_980_5253)">
<path d="M9.00001 3.35999C8.43337 3.35999 7.87945 3.52801 7.4083 3.84282C6.93716 4.15764 6.56994 4.60509 6.3531 5.1286C6.13625 5.65211 6.07951 6.22816 6.19006 6.78392C6.30061 7.33967 6.57347 7.85017 6.97415 8.25085C7.37483 8.65152 7.88532 8.92439 8.44108 9.03494C8.99683 9.14548 9.57289 9.08875 10.0964 8.8719C10.6199 8.65506 11.0674 8.28784 11.3822 7.81669C11.697 7.34555 11.865 6.79163 11.865 6.22499C11.865 5.46514 11.5632 4.73642 11.0259 4.19912C10.4886 3.66183 9.75986 3.35999 9.00001 3.35999ZM9.00001 8.08999C8.63115 8.08999 8.27057 7.98061 7.96387 7.77568C7.65717 7.57075 7.41813 7.27947 7.27698 6.93869C7.13582 6.59791 7.09889 6.22292 7.17085 5.86114C7.24281 5.49937 7.42043 5.16706 7.68126 4.90623C7.94208 4.64541 8.27439 4.46778 8.63617 4.39582C8.99794 4.32386 9.37293 4.36079 9.71372 4.50195C10.0545 4.64311 10.3458 4.88215 10.5507 5.18885C10.7556 5.49554 10.865 5.85612 10.865 6.22499C10.8637 6.71875 10.6666 7.19183 10.317 7.54051C9.96739 7.88918 9.49377 8.08499 9.00001 8.08499V8.08999Z" fill="#215034"/>
<path d="M9.00011 1C7.44271 1.0013 5.9491 1.61884 4.84551 2.71775C3.74192 3.81665 3.11803 5.30762 3.11011 6.865C3.11011 9.2 4.42011 11.155 5.38011 12.58L5.55511 12.84C6.51025 14.2243 7.53489 15.5594 8.62511 16.84L9.00511 17.285L9.38511 16.84C10.4752 15.5592 11.4998 14.2242 12.4551 12.84L12.6301 12.575C13.5851 11.15 14.8951 9.2 14.8951 6.865C14.8872 5.30675 14.2626 3.81503 13.1579 2.71599C12.0533 1.61694 10.5584 0.99998 9.00011 1ZM11.7951 12L11.6151 12.265C10.7551 13.555 9.61511 15 9.00011 15.715C8.41011 15 7.24511 13.555 6.38511 12.265L6.21011 12C5.32511 10.68 4.11011 8.875 4.11011 6.845C4.11011 6.20284 4.23659 5.56696 4.48234 4.97368C4.72808 4.3804 5.08828 3.84133 5.54236 3.38725C5.99643 2.93317 6.5355 2.57297 7.12879 2.32723C7.72207 2.08148 8.35794 1.955 9.00011 1.955C9.64227 1.955 10.2781 2.08148 10.8714 2.32723C11.4647 2.57297 12.0038 2.93317 12.4579 3.38725C12.9119 3.84133 13.2721 4.3804 13.5179 4.97368C13.7636 5.56696 13.8901 6.20284 13.8901 6.845C13.8901 8.895 12.6801 10.7 11.7951 12Z" fill="#215034"/>
</g>
<defs>
<clipPath id="clip0_980_5253">
<rect width="18" height="18" fill="white"/>
</clipPath>
</defs>
</svg>
