<svg width="306" height="19" viewBox="0 0 306 19" fill="none" xmlns="http://www.w3.org/2000/svg">
<path d="M7.36272 16.0476V0.674316H1.76214C1.1726 0.674316 0.628418 0.991758 0.628418 1.80804C0.628418 2.62432 1.1726 2.94176 1.76214 2.94176H5.09528V16.0476H1.76214C1.1726 16.0476 0.628418 16.365 0.628418 17.1813C0.628418 17.9976 1.1726 18.315 1.76214 18.315H10.6959C11.2854 18.315 11.8296 17.9976 11.8296 17.1813V11.4673C11.8296 10.8098 11.5348 10.3336 10.6959 10.3336C9.85691 10.3336 9.56214 10.8098 9.56214 11.4673V16.0476H7.36272Z" fill="#FAFAFA"/>
<path d="M19.2152 10.6284H25.6094C26.3577 10.6284 26.8792 10.515 27.4461 9.9935C28.0809 9.40397 28.149 8.79176 28.149 7.97548V3.32722C28.149 2.51094 28.0809 1.89874 27.4461 1.3092C26.8792 0.787689 26.3577 0.674316 25.6094 0.674316H18.0815C17.492 0.674316 16.9478 0.991758 16.9478 1.80804C16.9478 2.62432 17.492 2.94176 18.0815 2.94176H25.8815V8.36095H19.51C17.8094 8.36095 16.9478 9.22257 16.9478 10.9232V18.315H27.0152C27.6048 18.315 28.149 17.9976 28.149 17.1813C28.149 16.365 27.6048 16.0476 27.0152 16.0476H19.2152V10.6284Z" fill="#FAFAFA"/>
<path d="M42.2009 2.94176V6.70571C42.2009 7.97548 41.7021 8.36095 41.0672 8.36095H36.623C36.0335 8.36095 35.4893 8.67839 35.4893 9.49467C35.4893 10.3109 36.0335 10.6284 36.623 10.6284H41.0672C41.7021 10.6284 42.2009 11.0139 42.2009 12.2836V16.0476H34.4009C33.8114 16.0476 33.2672 16.365 33.2672 17.1813C33.2672 17.9976 33.8114 18.315 34.4009 18.315H42.2009C43.4933 18.315 44.4683 17.34 44.4683 16.0476V11.6941C44.4683 10.7871 44.2869 10.1296 43.584 9.49467C44.2869 8.85978 44.4683 8.20223 44.4683 7.29525V2.94176C44.4683 1.64932 43.4933 0.674316 42.2009 0.674316H34.4009C33.8114 0.674316 33.2672 0.991758 33.2672 1.80804C33.2672 2.62432 33.8114 2.94176 34.4009 2.94176H42.2009Z" fill="#FAFAFA"/>
<path d="M52.9877 10.2883V1.80804C52.9877 1.24118 52.7156 0.674316 51.854 0.674316C50.9924 0.674316 50.7203 1.24118 50.7203 1.80804V12.5557H57.3866V17.1813C57.3866 17.9069 57.704 18.315 58.5203 18.315C59.3366 18.315 59.654 17.9069 59.654 17.1813V12.5557C60.2435 12.5557 60.7877 12.2383 60.7877 11.422C60.7877 10.6057 60.2435 10.2883 59.654 10.2883V3.73536C59.654 3.1685 59.3819 2.60164 58.5203 2.60164C57.6587 2.60164 57.3866 3.1685 57.3866 3.73536V10.2883H52.9877Z" fill="#FAFAFA"/>
<path d="M86.7375 2.94176H92.2928C92.8823 2.94176 93.4265 2.62432 93.4265 1.80804C93.4265 0.991758 92.8823 0.674316 92.2928 0.674316H84.4701V10.6284H91.159V16.0476H85.9213C85.5585 16.0476 85.037 15.7301 84.7195 15.5941L84.0393 15.2993C83.7899 15.1859 83.5858 15.1179 83.3137 15.1179C82.7242 15.1179 82.2253 15.6621 82.2253 16.2516C82.2253 17.0452 82.9056 17.2493 83.5178 17.5214L84.3794 17.9069C84.9463 18.1563 85.2864 18.315 85.8759 18.315H90.9096C91.7259 18.315 92.3154 18.2243 92.8823 17.5441C93.3585 16.9772 93.4265 16.4784 93.4265 15.7755V10.9232C93.4265 10.1295 93.3585 9.58536 92.7236 8.99583C92.1794 8.47432 91.6352 8.36095 90.9096 8.36095H86.7375V2.94176Z" fill="#FAFAFA"/>
<path d="M100.812 2.94176C101.47 2.94176 101.946 2.48827 101.946 1.80804C101.946 1.2185 101.47 0.674316 100.88 0.674316H99.5197C98.7261 0.674316 98.5447 1.28653 98.5447 1.80804V16.8865C98.5447 17.9296 98.9529 18.315 100.019 18.315H108.272C109.292 18.315 109.746 17.9522 109.746 16.8865V11.8075C109.746 10.7644 109.519 10.2883 108.385 10.2883H100.812V2.94176ZM107.478 12.5557V16.0476H100.812V12.5557H107.478Z" fill="#FAFAFA"/>
<path d="M123.798 2.94176V6.07083C123.798 7.0685 123.843 7.04583 123.095 7.70339L119.966 10.4016C119.399 10.9005 119.376 10.9685 119.376 11.7168V17.1813C119.376 17.9069 119.694 18.315 120.51 18.315C121.326 18.315 121.644 17.9069 121.644 17.1813V12.7825C121.644 11.9889 121.689 11.9435 122.279 11.422L125.453 8.67839C126.088 8.1342 126.065 8.0435 126.065 7.2499V0.674316H115.998C115.272 0.674316 114.864 1.3092 114.864 1.80804V2.94176C114.864 3.4406 115.272 4.07548 115.998 4.07548C116.723 4.07548 117.132 3.4406 117.132 2.94176H123.798Z" fill="#FAFAFA"/>
<path d="M135.718 8.36095V2.94176H137.85V8.36095H135.718ZM134.585 0.674316C133.814 0.674316 133.451 1.2185 133.451 1.80804V8.36095C132.748 8.36095 132.204 8.61036 131.796 8.99583C131.388 9.38129 131.183 9.94816 131.183 10.6511V16.0476C131.183 17.4307 132.045 18.315 133.451 18.315H140.117C141.523 18.315 142.385 17.4307 142.385 16.0476V10.6511C142.385 9.94816 142.181 9.38129 141.772 8.99583C141.364 8.61036 140.82 8.36095 140.117 8.36095V1.80804C140.117 1.2185 139.754 0.674316 138.983 0.674316H134.585ZM133.451 16.0476V10.6284H140.117V16.0476H133.451Z" fill="#FAFAFA"/>
<path d="M172.756 16.0476C172.098 16.0476 171.622 16.5011 171.622 17.1813C171.622 17.7935 172.076 18.315 172.756 18.315H173.89C174.57 18.315 175.023 17.7935 175.023 17.1813V1.80804C175.023 1.2185 174.525 0.674316 173.89 0.674316H164.956C164.321 0.674316 163.822 1.2185 163.822 1.80804V7.61269C163.822 8.20223 164.321 8.74641 164.956 8.74641H172.756V16.0476ZM166.09 6.47897V2.94176H172.756V6.47897H166.09Z" fill="#FAFAFA"/>
<path d="M182.409 0.674316C181.162 0.674316 180.142 1.69467 180.142 2.94176V16.0476C180.142 17.3173 181.117 18.315 182.409 18.315H189.075C190.368 18.315 191.343 17.3173 191.343 16.0476V2.94176C191.343 1.69467 190.322 0.674316 189.075 0.674316H182.409ZM182.409 16.0476V2.94176H189.075V16.0476H182.409Z" fill="#FAFAFA"/>
<path d="M198.728 0.674316C197.481 0.674316 196.461 1.69467 196.461 2.94176V16.0476C196.461 17.3173 197.436 18.315 198.728 18.315H205.395C206.687 18.315 207.662 17.3173 207.662 16.0476V2.94176C207.662 1.69467 206.642 0.674316 205.395 0.674316H198.728ZM198.728 16.0476V2.94176H205.395V16.0476H198.728Z" fill="#FAFAFA"/>
<path d="M215.048 0.674316C213.801 0.674316 212.78 1.69467 212.78 2.94176V16.0476C212.78 17.3173 213.755 18.315 215.048 18.315H221.714C223.007 18.315 223.982 17.3173 223.982 16.0476V2.94176C223.982 1.69467 222.961 0.674316 221.714 0.674316H215.048ZM215.048 16.0476V2.94176H221.714V16.0476H215.048Z" fill="#FAFAFA"/>
<path d="M247.687 0.674316C246.439 0.674316 245.419 1.69467 245.419 2.94176V16.0476C245.419 17.3173 246.394 18.315 247.687 18.315H254.353C255.645 18.315 256.62 17.3173 256.62 16.0476V2.94176C256.62 1.69467 255.6 0.674316 254.353 0.674316H247.687ZM247.687 16.0476V2.94176H254.353V16.0476H247.687Z" fill="#FAFAFA"/>
<path d="M264.006 0.674316C262.759 0.674316 261.739 1.69467 261.739 2.94176V16.0476C261.739 17.3173 262.714 18.315 264.006 18.315H270.672C271.965 18.315 272.94 17.3173 272.94 16.0476V2.94176C272.94 1.69467 271.919 0.674316 270.672 0.674316H264.006ZM264.006 16.0476V2.94176H270.672V16.0476H264.006Z" fill="#FAFAFA"/>
<path d="M280.325 0.674316C279.078 0.674316 278.058 1.69467 278.058 2.94176V16.0476C278.058 17.3173 279.033 18.315 280.325 18.315H286.992C288.284 18.315 289.259 17.3173 289.259 16.0476V2.94176C289.259 1.69467 288.239 0.674316 286.992 0.674316H280.325ZM280.325 16.0476V2.94176H286.992V16.0476H280.325Z" fill="#FAFAFA"/>
<path d="M296.645 0.674316C295.398 0.674316 294.377 1.69467 294.377 2.94176V16.0476C294.377 17.3173 295.352 18.315 296.645 18.315H303.311C304.603 18.315 305.578 17.3173 305.578 16.0476V2.94176C305.578 1.69467 304.558 0.674316 303.311 0.674316H296.645ZM296.645 16.0476V2.94176H303.311V16.0476H296.645Z" fill="#FAFAFA"/>
</svg>
