<svg width="30" height="30" viewBox="0 0 30 30" fill="none" xmlns="http://www.w3.org/2000/svg">
<g id="Paypass" clip-path="url(#clip0_1166_3116)">
<g id="Vector">
<path d="M4.59788 12.0626C4.96067 12.5161 5.23277 13.0603 5.41416 13.6045C5.59556 14.1486 5.68626 14.7835 5.68626 15.4184C5.68626 16.0533 5.59556 16.6882 5.41416 17.2324C5.23277 17.7765 4.96067 18.3207 4.59788 18.7742C4.1444 19.4091 4.23509 20.3161 4.86998 20.7696C5.50486 21.2231 6.41184 21.1324 6.86533 20.4975C7.40951 19.7719 7.7723 19.0463 8.13509 18.1393C8.49788 17.2324 8.58858 16.3254 8.58858 15.4184C8.58858 14.5114 8.40719 13.6045 8.13509 12.6975C7.863 11.8812 7.40951 11.0649 6.86533 10.3393C6.41184 9.70445 5.50486 9.61375 4.86998 10.0672C4.23509 10.5207 4.1444 11.4277 4.59788 12.0626Z" fill="#232323"/>
<path d="M9.58625 9.43235C10.6746 11.1556 11.3095 13.2417 11.3095 15.4184C11.3095 17.5951 10.6746 19.6812 9.58625 21.4044C9.13277 22.0393 9.40486 22.9463 10.0397 23.3998C10.7653 23.8533 11.5816 23.5812 12.0351 22.9463C13.3956 20.7696 14.2118 18.23 14.2118 15.4184C14.2118 12.6975 13.3956 10.0672 12.0351 7.89049C11.5816 7.25561 10.6746 6.98352 10.0397 7.437C9.40486 7.89049 9.13277 8.70677 9.58625 9.43235Z" fill="#232323"/>
<path d="M14.8467 6.71143C16.3886 9.25096 17.2049 12.244 17.2049 15.4184C17.2049 18.5928 16.2979 21.5858 14.8467 24.1254C14.4839 24.851 14.6653 25.6672 15.3909 26.1207C16.1165 26.4835 16.9328 26.3021 17.3862 25.5765C19.2002 22.5835 20.1979 19.137 20.1979 15.4184C20.1979 11.6998 19.2002 8.25329 17.3862 5.26026C17.0235 4.53468 16.1165 4.35329 15.3909 4.71608C14.6653 5.16956 14.4839 5.98584 14.8467 6.71143Z" fill="#232323"/>
<path d="M20.1071 3.9905C22.0118 7.34631 23.1909 11.2463 23.1909 15.4184C23.1909 19.5905 22.1025 23.4905 20.1071 26.8463C19.7443 27.5719 19.9257 28.3882 20.6513 28.8417C21.3769 29.2044 22.1932 29.0231 22.6467 28.2975C24.8234 24.4882 26.0932 20.1347 26.0932 15.4184C26.0932 10.7021 24.8234 6.34863 22.6467 2.53933C22.2839 1.81375 21.3769 1.63236 20.6513 1.99515C19.9257 2.35794 19.7443 3.26491 20.1071 3.9905Z" fill="#232323"/>
</g>
</g>
<defs>
<clipPath id="clip0_1166_3116">
<rect width="29.0233" height="29.0233" fill="white" transform="translate(0.698242 0.907349)"/>
</clipPath>
</defs>
</svg>
