<svg width="32" height="32" viewBox="0 0 32 32" fill="none" xmlns="http://www.w3.org/2000/svg">
<path d="M13.3842 7.088L14.2495 8.63867C15.0295 10.0387 14.7162 11.8733 13.4869 13.104C13.4869 13.104 11.9935 14.596 14.7002 17.3013C17.4029 20.004 18.8962 18.5147 18.8962 18.5147C20.1269 17.284 21.9629 16.9707 23.3615 17.7507L24.9122 18.6173C27.0255 19.796 27.2749 22.7587 25.4175 24.6173C24.3015 25.732 22.9335 26.6013 21.4229 26.6573C18.8789 26.7547 14.5575 26.1107 10.2229 21.7773C5.88953 17.4427 5.24553 13.1213 5.34287 10.5773C5.4002 9.06667 6.2682 7.69867 7.38287 6.58267C9.24153 4.72534 12.2042 4.97467 13.3829 7.08934L13.3842 7.088Z" stroke="#217041" stroke-width="1.5" stroke-linecap="round"/>
</svg>
