<svg width="26" height="24" viewBox="0 0 26 24" fill="none" xmlns="http://www.w3.org/2000/svg">
<path fill-rule="evenodd" clip-rule="evenodd" d="M17.8898 21.5H8.84634C5.52445 21.5 2.97601 20.3925 3.69988 15.9348L4.54275 9.89363C4.98898 7.66937 6.52597 6.81812 7.87456 6.81812H18.9013C20.2697 6.81812 21.7174 7.73345 22.2331 9.89363L23.0759 15.9348C23.6907 19.8891 21.2117 21.5 17.8898 21.5Z" stroke="#215034" stroke-width="2" stroke-linecap="round" stroke-linejoin="round"/>
<path d="M18.0386 6.59842C18.0386 4.21235 15.9431 2.27805 13.3582 2.27805V2.27805C12.1134 2.27319 10.9179 2.72622 10.0358 3.53697C9.15378 4.34772 8.65795 5.44941 8.65796 6.59842V6.59842" stroke="#215034" stroke-width="2" stroke-linecap="round" stroke-linejoin="round"/>
<path d="M16.571 11.1018H16.5214" stroke="#215034" stroke-width="2" stroke-linecap="round" stroke-linejoin="round"/>
<path d="M10.2545 11.1018H10.2049" stroke="#215034" stroke-width="2" stroke-linecap="round" stroke-linejoin="round"/>
</svg>
