<svg width="26" height="26" viewBox="0 0 26 26" fill="none" xmlns="http://www.w3.org/2000/svg">
<path d="M13 25.8333C12.6905 25.8333 12.3938 25.7104 12.175 25.4916C11.9562 25.2728 11.8333 24.976 11.8333 24.6666V21.1666H7.16663C6.54779 21.1666 5.95429 20.9208 5.51671 20.4832C5.07912 20.0456 4.83329 19.4521 4.83329 18.8333V7.16663C4.83329 6.54779 5.07912 5.95429 5.51671 5.51671C5.95429 5.07912 6.54779 4.83329 7.16663 4.83329H23.5C24.1188 4.83329 24.7123 5.07912 25.1499 5.51671C25.5875 5.95429 25.8333 6.54779 25.8333 7.16663V18.8333C25.8333 19.4521 25.5875 20.0456 25.1499 20.4832C24.7123 20.9208 24.1188 21.1666 23.5 21.1666H18.7166L14.4 25.495C14.1666 25.7166 13.875 25.8333 13.5833 25.8333H13ZM14.1666 18.8333V22.4266L17.76 18.8333H23.5V7.16663H7.16663V18.8333H14.1666ZM2.49996 16.5H0.166626V2.49996C0.166626 1.88112 0.412459 1.28763 0.850043 0.850043C1.28763 0.412459 1.88112 0.166626 2.49996 0.166626H21.1666V2.49996H2.49996V16.5Z" fill="#217041"/>
</svg>
