<svg width="249" height="111" viewBox="0 0 249 111" fill="none" xmlns="http://www.w3.org/2000/svg">
<rect x="49" y="45" width="200" height="66" rx="33" fill="white"/>
<path d="M108.186 84.234C107.31 84.234 106.494 84.063 105.738 83.721C104.988 83.379 104.334 82.908 103.776 82.308C103.218 81.702 102.78 81.006 102.462 80.22C102.15 79.428 101.994 78.582 101.994 77.682C101.994 76.734 102.162 75.864 102.498 75.072C102.84 74.28 103.305 73.593 103.893 73.011C104.481 72.429 105.147 71.979 105.891 71.661C106.641 71.343 107.421 71.184 108.231 71.184C109.137 71.184 110.016 71.397 110.868 71.823C111.726 72.243 112.482 72.894 113.136 73.776L111.174 74.829C110.772 74.337 110.31 73.971 109.788 73.731C109.272 73.485 108.744 73.362 108.204 73.362C107.676 73.362 107.169 73.47 106.683 73.686C106.203 73.902 105.774 74.208 105.396 74.604C105.024 74.994 104.73 75.456 104.514 75.99C104.298 76.518 104.19 77.097 104.19 77.727C104.19 78.321 104.295 78.882 104.505 79.41C104.715 79.932 105.003 80.391 105.369 80.787C105.741 81.177 106.17 81.483 106.656 81.705C107.142 81.927 107.664 82.038 108.222 82.038C108.594 82.038 108.957 81.981 109.311 81.867C109.671 81.747 110.007 81.576 110.319 81.354C110.637 81.132 110.919 80.862 111.165 80.544C111.417 80.226 111.627 79.866 111.795 79.464H109.5V77.547H114.378C114.402 78.465 114.258 79.326 113.946 80.13C113.634 80.934 113.193 81.645 112.623 82.263C112.053 82.881 111.39 83.364 110.634 83.712C109.878 84.06 109.062 84.234 108.186 84.234ZM119.867 84.234C119.039 84.234 118.283 84.021 117.599 83.595C116.921 83.169 116.378 82.596 115.97 81.876C115.568 81.156 115.367 80.361 115.367 79.491C115.367 78.837 115.484 78.225 115.718 77.655C115.952 77.079 116.273 76.575 116.681 76.143C117.095 75.705 117.575 75.363 118.121 75.117C118.667 74.871 119.249 74.748 119.867 74.748C120.569 74.748 121.211 74.898 121.793 75.198C122.381 75.492 122.879 75.897 123.287 76.413C123.695 76.929 123.992 77.517 124.178 78.177C124.364 78.837 124.406 79.527 124.304 80.247H117.725C117.809 80.583 117.947 80.886 118.139 81.156C118.331 81.42 118.574 81.633 118.868 81.795C119.162 81.951 119.495 82.032 119.867 82.038C120.251 82.044 120.599 81.954 120.911 81.768C121.229 81.576 121.493 81.318 121.703 80.994L123.944 81.516C123.578 82.314 123.032 82.968 122.306 83.478C121.58 83.982 120.767 84.234 119.867 84.234ZM117.653 78.6H122.081C122.015 78.24 121.874 77.916 121.658 77.628C121.448 77.334 121.187 77.1 120.875 76.926C120.563 76.752 120.227 76.665 119.867 76.665C119.507 76.665 119.174 76.752 118.868 76.926C118.562 77.094 118.301 77.325 118.085 77.619C117.875 77.907 117.731 78.234 117.653 78.6ZM130.592 77.196H128.846V84H126.65V77.196H125.318V75H126.65V72.174H128.846V75H130.592V77.196ZM141.08 84.234C140.384 84.234 139.715 84.126 139.073 83.91C138.437 83.688 137.879 83.373 137.399 82.965C136.919 82.551 136.574 82.056 136.364 81.48L138.425 80.724C138.509 80.964 138.68 81.183 138.938 81.381C139.196 81.579 139.511 81.738 139.883 81.858C140.255 81.978 140.654 82.038 141.08 82.038C141.518 82.038 141.926 81.972 142.304 81.84C142.688 81.702 142.997 81.513 143.231 81.273C143.465 81.027 143.582 80.742 143.582 80.418C143.582 80.088 143.459 79.818 143.213 79.608C142.967 79.392 142.652 79.221 142.268 79.095C141.884 78.969 141.488 78.873 141.08 78.807C140.186 78.669 139.385 78.456 138.677 78.168C137.969 77.88 137.408 77.481 136.994 76.971C136.586 76.461 136.382 75.801 136.382 74.991C136.382 74.229 136.601 73.563 137.039 72.993C137.477 72.423 138.053 71.979 138.767 71.661C139.481 71.343 140.252 71.184 141.08 71.184C141.77 71.184 142.436 71.292 143.078 71.508C143.72 71.724 144.281 72.039 144.761 72.453C145.247 72.867 145.595 73.365 145.805 73.947L143.735 74.694C143.651 74.454 143.48 74.235 143.222 74.037C142.964 73.839 142.649 73.683 142.277 73.569C141.905 73.449 141.506 73.389 141.08 73.389C140.654 73.383 140.249 73.452 139.865 73.596C139.487 73.734 139.178 73.923 138.938 74.163C138.698 74.403 138.578 74.679 138.578 74.991C138.578 75.393 138.689 75.696 138.911 75.9C139.139 76.104 139.442 76.254 139.82 76.35C140.198 76.44 140.618 76.524 141.08 76.602C141.92 76.734 142.697 76.956 143.411 77.268C144.125 77.58 144.698 77.997 145.13 78.519C145.562 79.035 145.778 79.668 145.778 80.418C145.778 81.18 145.562 81.849 145.13 82.425C144.698 82.995 144.125 83.439 143.411 83.757C142.697 84.075 141.92 84.234 141.08 84.234ZM152.389 77.196H150.643V84H148.447V77.196H147.115V75H148.447V72.174H150.643V75H152.389V77.196ZM160.592 75H162.788V84H160.592L160.493 82.884C160.247 83.286 159.92 83.613 159.512 83.865C159.11 84.111 158.633 84.234 158.081 84.234C157.415 84.234 156.791 84.108 156.209 83.856C155.627 83.604 155.114 83.256 154.67 82.812C154.232 82.368 153.887 81.855 153.635 81.273C153.389 80.691 153.266 80.067 153.266 79.401C153.266 78.759 153.383 78.156 153.617 77.592C153.857 77.028 154.19 76.533 154.616 76.107C155.042 75.681 155.534 75.348 156.092 75.108C156.65 74.868 157.25 74.748 157.892 74.748C158.486 74.748 159.017 74.88 159.485 75.144C159.959 75.408 160.361 75.744 160.691 76.152L160.592 75ZM158.027 82.119C158.495 82.119 158.909 82.002 159.269 81.768C159.629 81.534 159.911 81.219 160.115 80.823C160.319 80.421 160.421 79.98 160.421 79.5C160.421 79.014 160.319 78.573 160.115 78.177C159.911 77.775 159.626 77.457 159.26 77.223C158.9 76.989 158.489 76.872 158.027 76.872C157.565 76.872 157.142 76.992 156.758 77.232C156.38 77.466 156.077 77.781 155.849 78.177C155.627 78.573 155.516 79.014 155.516 79.5C155.516 79.986 155.63 80.427 155.858 80.823C156.086 81.219 156.389 81.534 156.767 81.768C157.151 82.002 157.571 82.119 158.027 82.119ZM164.59 84L164.581 75H166.777L166.786 75.801C167.092 75.477 167.458 75.222 167.884 75.036C168.31 74.844 168.769 74.748 169.261 74.748C169.591 74.748 169.921 74.796 170.251 74.892L169.387 77.106C169.159 77.016 168.931 76.971 168.703 76.971C168.349 76.971 168.025 77.058 167.731 77.232C167.443 77.4 167.212 77.631 167.038 77.925C166.87 78.213 166.786 78.534 166.786 78.888V84H164.59ZM176.331 77.196H174.585V84H172.389V77.196H171.057V75H172.389V72.174H174.585V75H176.331V77.196ZM181.707 84.234C180.879 84.234 180.123 84.021 179.439 83.595C178.761 83.169 178.218 82.596 177.81 81.876C177.408 81.156 177.207 80.361 177.207 79.491C177.207 78.837 177.324 78.225 177.558 77.655C177.792 77.079 178.113 76.575 178.521 76.143C178.935 75.705 179.415 75.363 179.961 75.117C180.507 74.871 181.089 74.748 181.707 74.748C182.409 74.748 183.051 74.898 183.633 75.198C184.221 75.492 184.719 75.897 185.127 76.413C185.535 76.929 185.832 77.517 186.018 78.177C186.204 78.837 186.246 79.527 186.144 80.247H179.565C179.649 80.583 179.787 80.886 179.979 81.156C180.171 81.42 180.414 81.633 180.708 81.795C181.002 81.951 181.335 82.032 181.707 82.038C182.091 82.044 182.439 81.954 182.751 81.768C183.069 81.576 183.333 81.318 183.543 80.994L185.784 81.516C185.418 82.314 184.872 82.968 184.146 83.478C183.42 83.982 182.607 84.234 181.707 84.234ZM179.493 78.6H183.921C183.855 78.24 183.714 77.916 183.498 77.628C183.288 77.334 183.027 77.1 182.715 76.926C182.403 76.752 182.067 76.665 181.707 76.665C181.347 76.665 181.014 76.752 180.708 76.926C180.402 77.094 180.141 77.325 179.925 77.619C179.715 77.907 179.571 78.234 179.493 78.6ZM194.447 70.5H196.643V84H194.447V82.875C194.159 83.277 193.796 83.604 193.358 83.856C192.92 84.108 192.413 84.234 191.837 84.234C191.183 84.234 190.571 84.111 190.001 83.865C189.431 83.619 188.927 83.28 188.489 82.848C188.057 82.41 187.718 81.906 187.472 81.336C187.226 80.766 187.103 80.154 187.103 79.5C187.103 78.846 187.226 78.234 187.472 77.664C187.718 77.094 188.057 76.593 188.489 76.161C188.927 75.723 189.431 75.381 190.001 75.135C190.571 74.889 191.183 74.766 191.837 74.766C192.413 74.766 192.92 74.892 193.358 75.144C193.796 75.39 194.159 75.717 194.447 76.125V70.5ZM191.864 82.119C192.332 82.119 192.746 82.002 193.106 81.768C193.466 81.534 193.748 81.219 193.952 80.823C194.156 80.421 194.258 79.98 194.258 79.5C194.258 79.014 194.156 78.573 193.952 78.177C193.748 77.775 193.463 77.457 193.097 77.223C192.737 76.989 192.326 76.872 191.864 76.872C191.402 76.872 190.979 76.992 190.595 77.232C190.217 77.466 189.914 77.781 189.686 78.177C189.464 78.573 189.353 79.014 189.353 79.5C189.353 79.986 189.467 80.427 189.695 80.823C189.923 81.219 190.226 81.534 190.604 81.768C190.988 82.002 191.408 82.119 191.864 82.119Z" fill="#215034"/>
<path fill-rule="evenodd" clip-rule="evenodd" d="M35.7738 54.7124L36.449 55.1334C36.454 55.3977 36.4593 55.6734 36.4641 55.9522C36.6151 55.9253 36.7237 55.9062 36.8877 55.8772C37.0503 56.1738 37.2182 56.4806 37.3833 56.7818C37.2872 57.0064 37.2046 57.199 37.1183 57.4C37.3318 57.4092 37.4999 57.4159 37.6575 57.4224C37.6105 57.8539 37.5695 58.2335 37.5248 58.644C37.4739 58.6317 37.3461 58.6018 37.1775 58.5621L36.904 59.0007C36.2896 58.8587 35.6325 59.0576 35.1529 58.5501C34.8771 58.918 34.442 58.8243 34.185 58.7338C33.576 58.519 32.8638 58.6606 32.3544 58.3566C31.7601 58.0016 31.113 58.0466 30.5107 57.8736C29.7877 57.6662 29.0393 57.4597 28.2842 57.3148C27.5479 57.1734 26.7375 57.0834 26.07 56.6369C24.6036 56.5898 23.308 55.8809 21.9262 55.5126C20.8501 55.2257 19.7238 55.0021 18.7054 54.4661C18.351 54.2797 17.8091 54.4294 17.779 53.6911C17.2288 54.0011 16.7646 54.0723 16.2704 53.7407C15.9234 53.5082 15.4988 53.3601 15.0879 53.2605C14.0128 52.9986 13.025 52.5129 11.9969 52.1318C11.0526 51.7822 10.1552 51.305 9.2222 50.975C7.96467 50.5305 6.98508 49.6818 5.85077 49.071C5.65085 48.9634 5.551 48.6844 5.36755 48.5285C5.16876 48.3596 4.816 48.2905 4.73033 48.0921C4.61917 47.8343 4.39788 47.8667 4.25804 47.7355C4.05172 47.5419 3.8622 47.33 3.62544 47.0842C3.63544 46.8381 3.33287 46.5483 3.55714 46.1903C3.61383 46.1002 3.54924 45.8202 3.46147 45.7723C2.7967 45.409 2.97747 44.788 2.97775 44.1692C3.41094 43.2351 4.21202 42.8907 5.2588 43.0227C5.39655 43.0398 5.53909 43.0632 5.66541 43.1166C6.16117 43.3267 6.63324 43.6421 7.14856 43.7434C7.715 43.855 8.1535 44.1475 8.62101 44.4225C9.0698 44.6867 9.51183 45.1372 9.97242 45.1579C10.4858 45.1808 10.7484 45.8156 11.2865 45.5596C11.3888 46.0623 11.9789 45.7737 12.1823 46.1119C12.6726 46.0365 12.9774 46.4316 13.3777 46.5709C13.7486 46.7002 14.11 46.8665 14.4732 46.9793C15.6704 47.3491 16.8117 47.8383 17.9393 48.3706C18.6433 48.2561 19.036 49.0268 19.7448 48.9797C20.3533 48.9394 20.8816 49.3455 21.4364 49.5416C22.0667 49.7644 22.7054 50.0334 23.3326 50.2957C23.9185 50.5405 24.5329 50.7201 25.1291 50.9538C26.0081 51.2984 26.9717 51.4254 27.8241 51.873C28.4194 51.6824 28.7422 52.3685 29.3439 52.3156C29.8488 52.2708 30.385 52.5436 30.8431 52.7366C31.9613 53.208 33.1691 53.2729 34.2915 53.6742C34.5573 53.7692 34.8248 53.8608 35.1339 53.9687C35.0234 54.2258 34.9408 54.4184 34.8102 54.7226C35.1447 54.7193 35.4121 54.7162 35.7738 54.7124" fill="#EBF9DC"/>
<path fill-rule="evenodd" clip-rule="evenodd" d="M26.5504 33.8221C26.4654 33.8418 26.3918 33.8588 26.3185 33.8761C26.3139 33.6072 26.3087 33.3384 26.3027 33.0052C26.1345 33.1395 26.0263 33.2262 25.8534 33.364C25.5938 33.1542 25.1736 32.981 25.0754 32.6962C24.9158 32.2344 24.4719 32.4765 24.254 32.2029C24.0563 31.9547 23.6136 31.8436 23.5189 31.5844C23.3645 31.162 22.9792 31.1043 22.7362 30.8497C22.4977 30.6004 22.3121 30.3001 22.0875 30.0004C21.8978 29.9515 21.6737 29.8937 21.3791 29.8174C21.3941 29.5875 21.4099 29.3587 21.4367 28.958C21.1411 29.2135 21.0433 29.2975 20.8851 29.4346C20.3213 28.381 19.0892 28.01 18.4855 27.0189C18.5261 26.9045 18.5605 26.8055 18.6523 26.544C18.4323 26.723 18.3393 26.7993 18.2307 26.8873C18.0445 26.6897 17.8451 26.4779 17.638 26.2575C17.7148 26.0974 17.7923 25.9364 17.9057 25.7005C17.7732 25.7096 17.6921 25.7152 17.5696 25.7237C17.4979 25.6063 17.4154 25.4708 17.2987 25.2799C17.1412 25.3868 17.0059 25.4786 16.8755 25.5671C16.7558 25.2831 16.6359 24.9979 16.4941 24.661C16.5399 24.5656 16.6176 24.4041 16.7177 24.1951C16.4283 24.1684 16.1686 24.1441 15.8335 24.1133C15.8014 23.4172 15.2557 22.7635 15.4484 21.9747C15.5974 21.9324 15.7023 21.9026 15.8076 21.8731C15.7386 21.5753 15.6224 21.5736 15.1704 21.8648C15.1056 21.8302 15.0371 21.8007 14.9784 21.7578C14.9542 21.7402 14.9512 21.6934 14.9081 21.5801C15.0533 21.4803 15.2147 21.3696 15.3933 21.2467C15.4306 21.0507 15.4734 20.8256 15.5312 20.5199C15.7196 20.7604 15.8345 20.9063 15.9768 21.0883C16.0613 20.8237 16.1243 20.6272 16.2305 20.2941C16.4718 20.6555 16.6216 20.8802 16.7928 21.1364C16.6953 21.1698 16.6031 21.2011 16.4908 21.2394C16.6035 21.4259 16.717 21.6148 16.856 21.846L17.2584 21.2007C17.545 21.2257 17.788 21.2469 18.0497 21.2695C18.3865 21.7417 18.7292 22.223 19.0794 22.7142C19.3421 22.7634 20.0868 23.3728 20.3498 23.7682C20.4511 23.7498 20.5558 23.7307 20.7125 23.7025C20.8493 23.9167 20.9988 24.1505 21.1559 24.3964C21.0502 24.4281 20.9512 24.4586 20.852 24.4885C20.875 24.5463 20.8881 24.6545 20.9264 24.6643C21.3627 24.7787 21.8805 24.714 22.0464 25.334C22.0772 25.4489 22.4147 25.4831 22.6115 25.5511C23.5123 25.8631 24.1662 26.427 24.4837 27.3363C24.6575 27.3886 24.872 27.4086 25.0314 27.5124C25.2193 27.6345 25.4146 27.9969 25.5115 27.9651C26.0123 27.8 25.9006 28.3118 26.1128 28.4475C26.3195 28.5803 26.5046 28.7123 26.6625 28.9499C26.9293 29.3526 27.348 29.6635 27.7327 29.9766C29.0261 31.0289 30.2119 32.1794 31.3024 33.4482C32.1445 34.4274 33.0417 35.3619 33.7748 36.4258C34.2688 37.142 34.835 37.8739 35.0679 38.6855C35.2789 39.418 35.6091 40.1565 35.5988 41.0082C35.4946 41.058 35.3685 41.1184 35.2229 41.1883C35.2341 41.2611 35.2502 41.3629 35.2689 41.4801C34.91 41.553 34.5456 41.627 34.1359 41.7102C33.8983 41.4391 33.6697 41.1246 33.7613 40.5959C33.5743 40.8152 33.4387 40.9747 33.2918 41.1467L33.0187 40.9764C33.0486 40.8212 33.0754 40.6852 33.1027 40.546C32.9584 40.5472 32.8258 40.5485 32.6455 40.5503C32.5943 40.4188 32.5437 40.2877 32.494 40.16C32.2634 40.2041 32.0183 40.2519 31.7661 40.3001C31.7121 39.8686 31.7101 39.511 31.614 39.1806C31.5207 38.8598 30.9653 38.7673 31.1682 38.2187C31.2444 38.1827 31.3707 38.1234 31.5676 38.0309C31.3739 37.896 31.196 37.7718 30.9494 37.5999C30.9877 37.8225 31.0055 37.9278 31.0433 38.1506C30.8087 37.9867 30.5792 37.907 30.4888 37.7482C30.2751 37.3723 30.0023 37.0732 29.7098 36.758C29.4341 36.4611 29.1397 36.2248 28.8287 35.9815C28.5521 35.7651 28.3353 35.4732 28.0603 35.2543C27.7697 35.0238 27.4088 34.8753 27.1391 34.6252C26.8987 34.4025 26.7413 34.0905 26.5504 33.8221" fill="#EBF9DC"/>
<path fill-rule="evenodd" clip-rule="evenodd" d="M35.4528 6.2098L35.9551 5.40427C36.4968 5.26369 36.9788 5.33145 37.5134 5.74299C37.5113 5.86465 37.5074 6.08923 37.5024 6.35407C38.3788 6.35929 38.0923 7.3556 38.6733 7.53149C39.0924 8.44994 39.2137 9.44133 39.6886 10.3111C39.7581 10.4384 39.7624 10.6012 39.7953 10.7481C40.0272 11.7797 40.3897 12.7639 40.8025 13.7379C41.0862 14.4085 41.2739 15.1235 41.4584 15.8312C41.6597 16.6035 41.9055 17.3513 42.3014 18.0479C42.3726 18.1733 42.3732 18.3382 42.4089 18.4844C42.55 19.066 42.6244 19.6762 42.8552 20.2204C43.0414 20.6582 43.0935 21.1188 43.2247 21.5604C43.4518 22.3234 43.5329 23.1302 43.6674 23.9204C43.8027 24.7155 43.9578 25.5094 44.0442 26.3101C44.0799 26.6443 43.9601 26.9953 43.9093 27.3522C43.4724 27.4234 43.1043 27.4837 42.5366 27.5768C42.1701 27.5611 42.3517 26.967 42.1045 26.6503C41.9492 26.6652 41.8096 26.6792 41.7146 26.6883C41.3858 26.3749 41.0767 26.0801 40.6274 25.6515C40.1091 24.1249 39.45 22.4359 38.9416 20.6861C38.6998 19.8553 38.3672 19.0118 37.9458 18.2174C37.6447 17.6498 37.558 16.9685 37.3547 16.3428C36.8154 14.6855 36.2867 12.9997 36.0273 11.2842C35.7842 9.67251 35.2417 8.09327 35.4528 6.2098" fill="#EBF9DC"/>
</svg>
