<svg width="16" height="14" viewBox="0 0 16 14" fill="none" xmlns="http://www.w3.org/2000/svg">
<path d="M15.0002 5.12499C15.0012 5.60114 14.9079 6.07278 14.7255 6.51263C14.5431 6.95247 14.2753 7.35179 13.9377 7.68749L8.35641 13.3512C8.30988 13.3985 8.25442 13.436 8.19326 13.4616C8.1321 13.4872 8.06646 13.5004 8.00016 13.5004C7.93385 13.5004 7.86821 13.4872 7.80705 13.4616C7.74589 13.436 7.69043 13.3985 7.64391 13.3512L2.06266 7.68749C1.38221 7.00787 0.99961 6.08578 0.999024 5.12407C0.998438 4.16236 1.37991 3.23981 2.05953 2.55936C2.73915 1.87891 3.66124 1.49631 4.62295 1.49573C5.58466 1.49514 6.50721 1.87662 7.18766 2.55624L8.00016 3.31561L8.81828 2.55374C9.32606 2.04848 9.97215 1.70499 10.675 1.56663C11.3778 1.42827 12.1059 1.50125 12.7673 1.77634C13.4287 2.05144 13.9938 2.51633 14.3912 3.11231C14.7886 3.70829 15.0005 4.40866 15.0002 5.12499Z" stroke="#217041"/>
</svg>
