<svg width="24" height="24" viewBox="0 0 24 24" fill="none" xmlns="http://www.w3.org/2000/svg">
<path d="M11.9417 19C12.35 19 12.6954 18.8589 12.9777 18.5765C13.26 18.2942 13.4008 17.9493 13.4 17.5417C13.4 17.1334 13.2593 16.788 12.9777 16.5057C12.6962 16.2234 12.3508 16.0826 11.9417 16.0834C11.5334 16.0834 11.1884 16.2245 10.9069 16.5069C10.6253 16.7892 10.4842 17.1342 10.4834 17.5417C10.4834 17.95 10.6245 18.2954 10.9069 18.5777C11.1892 18.86 11.5342 19.0008 11.9417 19ZM12 23.6667C10.3862 23.6667 8.86948 23.3603 7.45004 22.7474C6.0306 22.1345 4.79587 21.3034 3.74587 20.2542C2.69587 19.2042 1.86482 17.9695 1.25271 16.55C0.640596 15.1306 0.334152 13.6139 0.333374 12C0.333374 10.3862 0.639819 8.86948 1.25271 7.45004C1.8656 6.0306 2.69665 4.79587 3.74587 3.74587C4.79587 2.69587 6.0306 1.86482 7.45004 1.25271C8.86948 0.640596 10.3862 0.334152 12 0.333374C13.6139 0.333374 15.1306 0.639819 16.55 1.25271C17.9695 1.8656 19.2042 2.69665 20.2542 3.74587C21.3042 4.79587 22.1357 6.0306 22.7485 7.45004C23.3614 8.86948 23.6675 10.3862 23.6667 12C23.6667 13.6139 23.3603 15.1306 22.7474 16.55C22.1345 17.9695 21.3034 19.2042 20.2542 20.2542C19.2042 21.3042 17.9695 22.1357 16.55 22.7485C15.1306 23.3614 13.6139 23.6675 12 23.6667ZM12 21.3334C14.6056 21.3334 16.8125 20.4292 18.6209 18.6209C20.4292 16.8125 21.3334 14.6056 21.3334 12C21.3334 9.39448 20.4292 7.18754 18.6209 5.37921C16.8125 3.57087 14.6056 2.66671 12 2.66671C9.39448 2.66671 7.18754 3.57087 5.37921 5.37921C3.57087 7.18754 2.66671 9.39448 2.66671 12C2.66671 14.6056 3.57087 16.8125 5.37921 18.6209C7.18754 20.4292 9.39448 21.3334 12 21.3334ZM12.1167 6.98337C12.6028 6.98337 13.0259 7.13893 13.386 7.45004C13.7462 7.76115 13.9258 8.15004 13.925 8.61671C13.925 9.04449 13.794 9.42365 13.5319 9.75421C13.2698 10.0848 12.973 10.3959 12.6417 10.6875C12.1945 11.0764 11.8009 11.5042 11.461 11.9709C11.1212 12.4375 10.9508 12.9625 10.95 13.5459C10.95 13.8181 11.0523 14.0468 11.2569 14.2319C11.4614 14.417 11.6994 14.5092 11.9709 14.5084C12.2625 14.5084 12.5107 14.4112 12.7152 14.2167C12.9198 14.0223 13.0508 13.7792 13.1084 13.4875C13.1862 13.0792 13.3612 12.7144 13.6334 12.3932C13.9056 12.072 14.1973 11.7659 14.5084 11.475C14.9556 11.0473 15.3398 10.5806 15.661 10.075C15.9823 9.56949 16.1425 9.0056 16.1417 8.38337C16.1417 7.39171 15.738 6.5801 14.9307 5.94854C14.1234 5.31699 13.1854 5.00082 12.1167 5.00004C11.3778 5.00004 10.6732 5.1556 10.0027 5.46671C9.33226 5.77782 8.82165 6.25421 8.47087 6.89587C8.33476 7.12921 8.29082 7.37732 8.33904 7.64021C8.38726 7.9031 8.51871 8.10221 8.73337 8.23754C9.0056 8.3931 9.28754 8.44171 9.57921 8.38337C9.87087 8.32504 10.1139 8.15976 10.3084 7.88754C10.5223 7.59587 10.7898 7.37226 11.111 7.21671C11.4323 7.06115 11.7675 6.98337 12.1167 6.98337Z" fill="#217041"/>
</svg>
