<svg width="168" height="141" viewBox="0 0 168 141" fill="none" xmlns="http://www.w3.org/2000/svg">
<path d="M160.125 91.2351H145.391C141.78 91.2351 138.755 88.3078 138.755 84.5998C138.755 82.7459 139.536 81.087 140.707 79.9161C141.878 78.7452 143.537 77.9646 145.391 77.9646H147.537C149.391 77.9646 151.05 77.1839 152.221 76.013C153.392 74.8421 154.173 73.1833 154.173 71.3293C154.173 67.7189 151.245 64.694 147.537 64.694H99.7244C100.31 63.7182 100.603 62.6449 100.603 61.5715C100.603 58.0587 97.7728 55.229 94.26 55.229H75.9154V51.4234H141.683C144.512 51.4234 147.147 50.2525 149.001 48.3985C150.855 46.5445 152.026 43.9099 152.026 41.0802C152.026 35.3231 147.342 30.737 141.683 30.737H100.017C98.9437 28.0048 96.2116 25.9557 92.9915 25.9557H69.5729V14.2463H115.922C117.874 14.2463 119.728 13.4657 120.996 12.1972C122.265 10.9287 123.045 9.1723 123.045 7.12317C123.045 3.22006 119.825 0 115.922 0H20.3937C18.4422 0 16.5882 0.780621 15.3197 2.04913C14.0512 3.31764 13.2706 5.07404 13.2706 7.12317C13.2706 11.0263 16.4906 14.2463 20.3937 14.2463H22.8332C26.0532 14.2463 28.7854 16.8809 28.7854 20.1986C28.7854 21.8574 28.1024 23.3211 27.029 24.3944C25.9557 25.4678 24.492 26.1508 22.8332 26.1508H11.0263C8.97714 26.1508 7.02559 27.029 5.6595 28.3951C4.29342 29.7612 3.41522 31.6152 3.41522 33.7619C3.41522 37.9577 6.83044 41.2753 10.9287 41.2753H22.9307C26.8339 41.2753 30.0539 44.4954 30.0539 48.3985C30.0539 50.3501 29.2733 52.1065 28.0048 53.375C26.7363 54.6435 24.9799 55.4241 23.0283 55.4241H12.2948C10.5384 55.4241 8.97714 56.1072 7.80621 57.2781C6.63528 58.449 5.95224 60.0103 5.95224 61.7667C5.95224 65.2795 8.78199 68.1092 12.2948 68.1092H20.9792C25.9557 68.1092 29.9563 72.1099 29.9563 77.0863C29.9563 79.5258 28.9806 81.8677 27.3217 83.4289C25.6629 85.0877 23.4186 86.0635 20.9792 86.0635H8.87957C6.44013 86.0635 4.19584 87.0393 2.6346 88.6981C0.975776 90.2593 0 92.5036 0 94.9431C0 99.822 4.00068 103.823 8.87957 103.823H52.6919C54.058 105.481 56.2047 106.555 58.5466 106.555H70.0608V117.776H48.7888C46.6421 117.776 44.7881 118.654 43.4221 120.021C42.056 121.387 41.1778 123.338 41.1778 125.387C41.1778 129.583 44.593 132.998 48.7888 132.998H150.27C152.416 132.998 154.27 132.12 155.636 130.754C157.002 129.388 157.881 127.436 157.881 125.387C157.881 121.191 154.465 117.776 150.27 117.776H147.245C144.122 117.776 141.683 115.239 141.683 112.214C141.683 110.653 142.268 109.287 143.342 108.311C144.317 107.335 145.781 106.652 147.342 106.652H160.125C162.272 106.652 164.126 105.774 165.492 104.408C166.858 103.042 167.736 101.09 167.736 99.0413C167.736 94.6503 164.321 91.2351 160.125 91.2351Z" fill="#F3F8FC"/>
<path d="M133.097 21.2717V126.948C133.097 134.657 126.852 140.999 119.045 140.999H114.459C111.629 140.999 109.288 139.438 107.336 137.389C104.214 133.974 102.555 129.485 102.555 124.802V112.604C102.555 107.726 98.5541 103.725 93.6752 103.725H37.1777V21.2717C37.1777 16.8807 40.7881 13.2704 45.1791 13.2704H125.095C129.584 13.2704 133.097 16.8807 133.097 21.2717Z" fill="#29AD5F"/>
<path d="M114.556 140.999H30.4442C20.9791 140.999 13.2705 133.29 13.2705 123.825V112.604C13.2705 107.725 17.2712 103.724 22.1501 103.724H93.8697C98.7485 103.724 102.749 107.725 102.749 112.604V124.801C102.749 129.387 104.408 133.973 107.531 137.388C109.385 139.438 111.726 140.999 114.556 140.999Z" fill="#81CFA1"/>
<path d="M59.0341 57.6683C62.4292 57.6683 65.1815 54.9161 65.1815 51.521C65.1815 48.1258 62.4292 45.3736 59.0341 45.3736C55.639 45.3736 52.8867 48.1258 52.8867 51.521C52.8867 54.9161 55.639 57.6683 59.0341 57.6683Z" fill="white"/>
<path d="M111.921 57.7656H79.9159C76.5007 57.7656 73.7686 55.0334 73.7686 51.6182C73.7686 48.203 76.5007 45.4708 79.9159 45.4708H112.019C115.434 45.4708 118.166 48.203 118.166 51.6182C118.166 54.9358 115.337 57.7656 111.921 57.7656Z" fill="white"/>
<path d="M59.0341 76.403C62.4292 76.403 65.1815 73.6507 65.1815 70.2556C65.1815 66.8605 62.4292 64.1082 59.0341 64.1082C55.639 64.1082 52.8867 66.8605 52.8867 70.2556C52.8867 73.6507 55.639 76.403 59.0341 76.403Z" fill="white"/>
<path d="M111.921 76.403H79.9159C76.5007 76.403 73.7686 73.6708 73.7686 70.2556C73.7686 66.8403 76.5007 64.1082 79.9159 64.1082H112.019C115.434 64.1082 118.166 66.8403 118.166 70.2556C118.166 73.6708 115.337 76.403 111.921 76.403Z" fill="white"/>
<path d="M59.0341 95.138C62.4292 95.138 65.1815 92.3857 65.1815 88.9906C65.1815 85.5955 62.4292 82.8432 59.0341 82.8432C55.639 82.8432 52.8867 85.5955 52.8867 88.9906C52.8867 92.3857 55.639 95.138 59.0341 95.138Z" fill="white"/>
<path d="M111.921 95.1378H79.9159C76.5007 95.1378 73.7686 92.4056 73.7686 88.9904C73.7686 85.5752 76.5007 82.843 79.9159 82.843H112.019C115.434 82.843 118.166 85.5752 118.166 88.9904C118.166 92.4056 115.337 95.1378 111.921 95.1378Z" fill="white"/>
<path d="M114.556 141H75.0367C74.744 140.317 74.6464 139.634 74.6464 138.854C74.6464 137.097 75.3294 135.536 76.5004 134.365C77.6713 133.194 79.2325 132.511 80.9889 132.511H91.6249C93.5765 132.511 95.3329 131.73 96.6014 130.462C97.8699 129.193 98.6505 127.437 98.6505 125.485C98.6505 121.582 95.4304 118.362 91.5273 118.362H79.6229C75.427 118.362 72.1094 114.947 72.1094 110.849C72.1094 108.8 72.9876 106.848 74.3537 105.482C75.1343 104.701 75.9149 104.213 76.9883 103.823H93.9668C98.8457 103.823 102.846 107.824 102.846 112.703V124.9C102.846 129.584 104.408 134.072 107.628 137.487C109.286 139.439 111.726 141 114.556 141Z" fill="#9DE7BB"/>
</svg>
