<svg width="24" height="24" viewBox="0 0 24 24" fill="none" xmlns="http://www.w3.org/2000/svg">
<path d="M22.9784 11.51L12.4784 1.01004C12.0584 0.590041 11.475 0.333374 10.8334 0.333374H2.66671C1.38337 0.333374 0.333374 1.38337 0.333374 2.66671V10.8334C0.333374 11.475 0.590041 12.0584 1.02171 12.49L11.5217 22.99C11.9417 23.41 12.525 23.6667 13.1667 23.6667C13.8084 23.6667 14.3917 23.41 14.8117 22.9784L22.9784 14.8117C23.41 14.3917 23.6667 13.8084 23.6667 13.1667C23.6667 12.525 23.3984 11.93 22.9784 11.51ZM13.1667 21.345L2.66671 10.8334V2.66671H10.8334V2.65504L21.3334 13.155L13.1667 21.345Z" fill="#217041"/>
</svg>
