<svg width="20" height="26" viewBox="0 0 20 26" fill="none" xmlns="http://www.w3.org/2000/svg">
<path d="M9.00375 7.1935C9.44708 6.39667 9.66875 6 10.0001 6C10.3314 6 10.5531 6.39667 10.9964 7.1935L11.1107 7.39883C11.2367 7.62517 11.2997 7.73717 11.3977 7.81183C11.4969 7.8865 11.6194 7.9145 11.8644 7.96933L12.0861 8.02067C12.9471 8.2155 13.3776 8.31233 13.4802 8.64133C13.5829 8.9715 13.2889 9.3145 12.7021 10.0005L12.5504 10.1778C12.3836 10.3727 12.2996 10.4695 12.2622 10.5908C12.2249 10.7122 12.2377 10.8417 12.2622 11.1018L12.2856 11.3387C12.3742 12.2545 12.4186 12.713 12.1514 12.916C11.8831 13.119 11.4794 12.9335 10.6732 12.5625L10.4656 12.4668C10.2357 12.3618 10.1214 12.3093 10.0001 12.3093C9.87875 12.3093 9.76442 12.3618 9.53458 12.4668L9.32692 12.5625C8.52075 12.9347 8.11708 13.119 7.84875 12.916C7.58042 12.713 7.62592 12.2545 7.71458 11.3387L7.73792 11.1018C7.76242 10.8417 7.77525 10.7122 7.73792 10.5908C7.70058 10.4707 7.61658 10.3727 7.44975 10.1778L7.29808 10.0005C6.71125 9.3145 6.41725 8.9715 6.51992 8.64133C6.62258 8.31233 7.05308 8.2155 7.91408 8.02067L8.13575 7.96933C8.38075 7.9145 8.50325 7.88767 8.60242 7.81183C8.70042 7.73717 8.76342 7.62517 8.88942 7.39883L9.00375 7.1935Z" stroke="#217041" stroke-width="2"/>
<path d="M18.1667 9.50004C18.1667 10.5725 17.9555 11.6345 17.5451 12.6253C17.1346 13.6161 16.5331 14.5164 15.7747 15.2747C15.0164 16.0331 14.1161 16.6346 13.1253 17.0451C12.1345 17.4555 11.0725 17.6667 10 17.6667C8.92758 17.6667 7.86562 17.4555 6.87479 17.0451C5.88397 16.6346 4.98368 16.0331 4.22534 15.2747C3.46699 14.5164 2.86544 13.6161 2.45502 12.6253C2.04461 11.6345 1.83337 10.5725 1.83337 9.50004C1.83337 7.33411 2.69379 5.25688 4.22534 3.72534C5.75688 2.19379 7.83411 1.33337 10 1.33337C12.166 1.33337 14.2432 2.19379 15.7747 3.72534C17.3063 5.25688 18.1667 7.33411 18.1667 9.50004Z" stroke="#217041" stroke-width="2"/>
<path d="M4.57624 16.5L3.83308 19.2102C3.10041 21.8842 2.73408 23.2212 3.22291 23.9527C3.39441 24.2093 3.62424 24.4147 3.89141 24.5512C4.65208 24.9385 5.82808 24.326 8.17891 23.101C8.96058 22.6927 9.35258 22.4897 9.76791 22.4453C9.92225 22.4288 10.0779 22.4288 10.2322 22.4453C10.6476 22.4897 11.0384 22.6938 11.8212 23.101C14.1721 24.326 15.3481 24.9385 16.1087 24.5512C16.3759 24.4147 16.6057 24.2093 16.7772 23.9527C17.2672 23.2212 16.8997 21.8842 16.1671 19.2102L15.4239 16.5" stroke="#217041" stroke-width="2" stroke-linecap="round"/>
</svg>
