<svg width="28" height="30" viewBox="0 0 28 30" fill="none" xmlns="http://www.w3.org/2000/svg">
<g filter="url(#filter0_d_980_2977)">
<path d="M19 17L23 21M5 11C5 13.1217 5.84285 15.1566 7.34315 16.6569C8.84344 18.1571 10.8783 19 13 19C15.1217 19 17.1566 18.1571 18.6569 16.6569C20.1571 15.1566 21 13.1217 21 11C21 8.87827 20.1571 6.84344 18.6569 5.34315C17.1566 3.84285 15.1217 3 13 3C10.8783 3 8.84344 3.84285 7.34315 5.34315C5.84285 6.84344 5 8.87827 5 11Z" stroke="#215034" stroke-width="1.5" stroke-linecap="round" stroke-linejoin="round"/>
</g>
<defs>
<filter id="filter0_d_980_2977" x="-2" y="0" width="32" height="32" filterUnits="userSpaceOnUse" color-interpolation-filters="sRGB">
<feFlood flood-opacity="0" result="BackgroundImageFix"/>
<feColorMatrix in="SourceAlpha" type="matrix" values="0 0 0 0 0 0 0 0 0 0 0 0 0 0 0 0 0 0 127 0" result="hardAlpha"/>
<feOffset dy="4"/>
<feGaussianBlur stdDeviation="2"/>
<feComposite in2="hardAlpha" operator="out"/>
<feColorMatrix type="matrix" values="0 0 0 0 0 0 0 0 0 0 0 0 0 0 0 0 0 0 0.25 0"/>
<feBlend mode="normal" in2="BackgroundImageFix" result="effect1_dropShadow_980_2977"/>
<feBlend mode="normal" in="SourceGraphic" in2="effect1_dropShadow_980_2977" result="shape"/>
</filter>
</defs>
</svg>
