<svg width="24" height="26" viewBox="0 0 24 26" fill="none" xmlns="http://www.w3.org/2000/svg">
<path d="M14.4254 0.75C14.6107 0.750006 14.7912 0.808807 14.9409 0.917934C15.0906 1.02706 15.2018 1.18089 15.2584 1.35725L16.2209 4.348C16.6252 4.54575 17.0119 4.768 17.3812 5.01825L20.4542 4.35675C20.6354 4.31807 20.8242 4.33789 20.9934 4.41337C21.1626 4.48885 21.3034 4.61608 21.3957 4.77675L23.8212 8.975C23.9138 9.13557 23.953 9.32141 23.9332 9.50572C23.9134 9.69003 23.8356 9.86328 23.7109 10.0005L21.6022 12.328C21.6329 12.7743 21.6329 13.2222 21.6022 13.6685L23.7109 15.9995C23.8356 16.1367 23.9134 16.31 23.9332 16.4943C23.953 16.6786 23.9138 16.8644 23.8212 17.025L21.3957 21.225C21.3032 21.3853 21.1622 21.5122 20.993 21.5874C20.8238 21.6625 20.6352 21.6821 20.4542 21.6432L17.3812 20.9818C17.0137 21.2303 16.6252 21.4543 16.2227 21.652L15.2584 24.6427C15.2018 24.8191 15.0906 24.9729 14.9409 25.0821C14.7912 25.1912 14.6107 25.25 14.4254 25.25H9.57444C9.38919 25.25 9.20872 25.1912 9.05903 25.0821C8.90933 24.9729 8.79813 24.8191 8.74144 24.6427L7.78069 21.6537C7.37753 21.4566 6.98866 21.2315 6.61694 20.98L3.54569 21.6432C3.36451 21.6819 3.17572 21.6621 3.00652 21.5866C2.83732 21.5112 2.69645 21.3839 2.6042 21.2233L0.178695 17.025C0.0860758 16.8644 0.046845 16.6786 0.0666597 16.4943C0.0864744 16.31 0.164311 16.1367 0.288945 15.9995L2.3977 13.6685C2.36715 13.2234 2.36715 12.7766 2.3977 12.3315L0.288945 10.0005C0.164311 9.86328 0.0864744 9.69003 0.0666597 9.50572C0.046845 9.32141 0.0860758 9.13557 0.178695 8.975L2.6042 4.775C2.69671 4.61465 2.83769 4.48778 3.00687 4.41263C3.17604 4.33747 3.3647 4.31791 3.54569 4.35675L6.61694 5.02C6.98794 4.76975 7.37644 4.544 7.78069 4.34625L8.74319 1.35725C8.7997 1.18145 8.91037 1.02804 9.05936 0.918962C9.20836 0.809887 9.38804 0.750745 9.57269 0.75H14.4237H14.4254ZM13.7849 2.5H10.2149L9.22095 5.59225L8.55069 5.9195C8.2212 6.08074 7.90312 6.26434 7.59869 6.469L6.9792 6.889L3.8012 6.203L2.0162 9.297L4.19494 11.7085L4.14245 12.4505C4.1173 12.8164 4.1173 13.1836 4.14245 13.5495L4.19494 14.2915L2.0127 16.703L3.79944 19.797L6.97745 19.1128L7.59695 19.531C7.90137 19.7357 8.21945 19.9193 8.54894 20.0805L9.21919 20.4077L10.2149 23.5H13.7884L14.7859 20.406L15.4544 20.0805C15.7836 19.9196 16.1011 19.736 16.4047 19.531L17.0224 19.1128L20.2022 19.797L21.9872 16.703L19.8067 14.2915L19.8592 13.5495C19.8844 13.183 19.8844 12.8152 19.8592 12.4487L19.8067 11.7067L21.9889 9.297L20.2022 6.203L17.0224 6.8855L16.4047 6.469C16.1011 6.26393 15.7836 6.08031 15.4544 5.9195L14.7859 5.594L13.7867 2.5H13.7849ZM11.9999 7.75C13.3923 7.75 14.7277 8.30312 15.7123 9.28769C16.6968 10.2723 17.2499 11.6076 17.2499 13C17.2499 14.3924 16.6968 15.7277 15.7123 16.7123C14.7277 17.6969 13.3923 18.25 11.9999 18.25C10.6076 18.25 9.2722 17.6969 8.28763 16.7123C7.30307 15.7277 6.74994 14.3924 6.74994 13C6.74994 11.6076 7.30307 10.2723 8.28763 9.28769C9.2722 8.30312 10.6076 7.75 11.9999 7.75ZM11.9999 9.5C11.0717 9.5 10.1814 9.86875 9.52507 10.5251C8.86869 11.1815 8.49994 12.0717 8.49994 13C8.49994 13.9283 8.86869 14.8185 9.52507 15.4749C10.1814 16.1313 11.0717 16.5 11.9999 16.5C12.9282 16.5 13.8184 16.1313 14.4748 15.4749C15.1312 14.8185 15.4999 13.9283 15.4999 13C15.4999 12.0717 15.1312 11.1815 14.4748 10.5251C13.8184 9.86875 12.9282 9.5 11.9999 9.5Z" fill="#217041"/>
</svg>
