<svg width="165" height="87" viewBox="0 0 165 87" fill="none" xmlns="http://www.w3.org/2000/svg">
<mask id="mask0_1228_3799" style="mask-type:luminance" maskUnits="userSpaceOnUse" x="43" y="0" width="122" height="87">
<path d="M43.791 0H164.408V86.0096H43.791V0Z" fill="white"/>
</mask>
<g mask="url(#mask0_1228_3799)">
<path d="M59.5862 21.1706C58.4918 23.7813 55.4833 25.0035 52.8802 23.9087C50.2693 22.8061 49.0465 19.8066 50.142 17.1959C51.2442 14.5941 54.2449 13.372 56.8558 14.4668C59.4589 15.5615 60.6895 18.5688 59.5862 21.1706ZM45.3557 24.9811L62.1223 54.071L136.487 85.3885C140.755 87.1882 145.677 85.1863 147.477 80.9122L163.749 42.3044C165.541 38.0369 163.538 33.1171 159.27 31.3175L84.9046 0L52.3699 8.33151C45.1011 10.1993 41.6125 18.4783 45.3557 24.9811Z" fill="#215034"/>
</g>
<path d="M1.71105 42.3862C1.49329 42.3862 1.26883 42.3482 1.05106 42.251C0.173319 41.8835 -0.232052 40.8792 0.135351 40.009C4.50956 29.6298 12.6561 21.5675 23.084 17.3302C33.5031 13.0863 44.9663 13.1533 55.3485 17.5335C56.2262 17.9 56.6316 18.9054 56.2642 19.7756C55.8957 20.6447 54.8906 21.0581 54.0207 20.6905C44.4783 16.67 33.9531 16.603 24.3739 20.5029C14.8013 24.4027 7.31477 31.8048 3.29345 41.3361C3.0165 41.9963 2.38667 42.3862 1.71105 42.3862Z" fill="#29AD5F"/>
</svg>
