<svg width="40" height="40" viewBox="0 0 40 40" fill="none" xmlns="http://www.w3.org/2000/svg">
<path d="M20.0008 0.799805C9.39678 0.799805 0.800781 9.39581 0.800781 19.9998C0.800781 30.6038 9.39678 39.1998 20.0008 39.1998C30.6048 39.1998 39.2008 30.6038 39.2008 19.9998C39.2008 9.39581 30.6048 0.799805 20.0008 0.799805ZM27.8108 16.5278C27.8188 16.6918 27.8208 16.8558 27.8208 17.0158C27.8208 22.0158 24.0188 27.7778 17.0628 27.7778C15.0074 27.7812 12.9947 27.1909 11.2668 26.0778C11.5608 26.1138 11.8628 26.1278 12.1688 26.1278C13.9408 26.1278 15.5708 25.5258 16.8648 24.5098C16.0762 24.4943 15.3121 24.2332 14.679 23.7628C14.0459 23.2925 13.5753 22.6363 13.3328 21.8858C13.8991 21.9935 14.4825 21.9709 15.0388 21.8198C14.1829 21.6467 13.4132 21.183 12.8602 20.5071C12.3072 19.8313 12.005 18.985 12.0048 18.1118V18.0658C12.5148 18.3478 13.0988 18.5198 13.7188 18.5398C12.9164 18.0057 12.3484 17.1851 12.1309 16.2461C11.9134 15.307 12.0629 14.3203 12.5488 13.4878C13.4987 14.6558 14.6833 15.6113 16.0259 16.2924C17.3685 16.9736 18.8392 17.3651 20.3428 17.4418C20.1516 16.6304 20.2339 15.7786 20.5768 15.0188C20.9197 14.259 21.504 13.6338 22.2389 13.2403C22.9738 12.8469 23.8181 12.7073 24.6406 12.8431C25.463 12.979 26.2175 13.3829 26.7868 13.9918C27.6331 13.8244 28.4447 13.5139 29.1868 13.0738C28.9047 13.9501 28.3141 14.6942 27.5248 15.1678C28.2745 15.0775 29.0065 14.876 29.6968 14.5698C29.1898 15.3296 28.5511 15.9927 27.8108 16.5278Z" fill="#215034"/>
</svg>
